<svg width="3842" height="3842" viewBox="0 0 3842 3842" fill="none" xmlns="http://www.w3.org/2000/svg">
<circle cx="1921" cy="1921" r="1921" fill="white"/>
<path d="M2099.38 729.324C2091.7 733.486 2072.49 752.376 2054.24 773.507C1828.2 1036.04 1629.06 1268.8 1622.66 1278.09C1611.77 1294.1 1611.77 1317.15 1622.66 1335.72C1631.94 1351.41 1636.42 1353.97 1722.87 1388.55C1760.01 1403.6 1780.82 1413.52 1779.86 1415.76C1778.9 1418 1746.24 1466.35 1706.54 1523.34C1370.69 2008.07 1389.25 1980.54 1387.97 2000.39C1386.37 2022.16 1394.38 2038.81 1411.99 2050.97L1423.83 2058.98L1746.56 2059.94L2069.29 2060.58V2204.65V2348.73H1914.97L1760.33 2348.41L1689.89 2293.98C1651.15 2263.88 1615.29 2236.99 1609.85 2234.11C1600.89 2228.98 1566.63 2228.66 1187.23 2228.66C787.342 2228.66 773.895 2228.98 762.048 2234.75C723.308 2253.96 722.348 2311.27 760.127 2332.4C771.653 2339.12 774.535 2339.12 1168.98 2339.12H1565.67L1599.92 2365.38C1618.49 2379.78 1632.58 2392.59 1631.3 2393.87C1630.02 2395.15 1549.34 2432.93 1451.69 2478.07C1354.36 2522.9 1271.75 2562.28 1268.23 2565.48C1257.67 2575.09 1252.86 2586.93 1224.05 2675.3L1196.51 2760.14L1106.87 2817.77C1057.56 2849.47 975.6 2901.98 925.013 2934.31C874.427 2966.65 833.766 2993.54 834.406 2994.5C835.367 2995.14 873.146 2983.62 918.61 2968.57C964.394 2953.84 1059.8 2922.47 1131.2 2899.41C1202.6 2876.04 1264.71 2854.91 1269.83 2852.67C1284.56 2844.99 1292.88 2827.06 1317.22 2750.54C1330.02 2709.88 1340.91 2676.26 1341.55 2675.62C1341.87 2674.98 1354.36 2677.54 1368.76 2681.06C1383.49 2684.58 1462.89 2704.43 1545.5 2725.24L1695.65 2763.02L1781.78 2840.82C1828.84 2883.73 1869.18 2918.62 1870.79 2918.62C1872.39 2918.62 1870.47 2909.66 1866.3 2898.77C1806.75 2741.25 1785.94 2688.42 1780.5 2680.74C1776.98 2675.94 1770.25 2669.85 1765.13 2667.29C1760.33 2664.73 1695.33 2647.44 1620.74 2628.87C1546.14 2610.3 1482.42 2593.97 1479.54 2592.69C1475.7 2591.09 1516.04 2571.24 1614.65 2525.46L1755.53 2460.79H2335.35C2975.68 2460.79 2927.02 2462.39 2944.95 2440.94C2968.64 2412.76 2960.31 2372.42 2927.34 2355.77L2913.25 2348.73H2547.3H2181.35V1998.79C2181.35 1779.15 2180.07 1645 2178.15 1637.96C2174.62 1624.83 2158.62 1607.86 2145.17 1603.06C2118.91 1593.13 2087.86 1604.98 2076.01 1629.31C2069.61 1642.76 2069.29 1647.24 2069.29 1795.8V1948.52H1809.95C1667.48 1948.52 1550.62 1947.88 1550.62 1946.92C1550.62 1945.32 1567.59 1920.66 1776.02 1619.39C1853.18 1507.97 1918.17 1411.6 1920.73 1405.84C1923.29 1399.75 1925.21 1390.79 1925.21 1385.99C1924.89 1373.18 1914.65 1352.05 1904.72 1344.36C1900.24 1340.52 1866.94 1325.79 1830.76 1311.39C1794.59 1296.98 1765.13 1284.17 1765.13 1282.89C1765.13 1281.61 1772.17 1272.65 1780.5 1263.04C1789.14 1253.76 1844.85 1188.76 1904.72 1119.29C1964.27 1049.81 2038.55 963.366 2069.29 927.507L2125 862.513L2131.72 870.198C2135.24 874.36 2215.93 968.169 2311.01 1078.95C2406.1 1189.4 2484.23 1280.97 2484.87 1282.25C2485.19 1283.53 2459.25 1295.38 2427.24 1308.19C2353.28 1337.64 2346.87 1341.16 2336.95 1353.97C2327.34 1366.46 2323.18 1389.83 2327.98 1403.28C2329.58 1408.4 2414.11 1532.62 2515.6 1679.26C2617.09 1825.9 2700.02 1946.6 2700.02 1947.24C2700.02 1947.88 2613.25 1948.52 2506.96 1948.52H2313.9L2299.81 1955.56C2262.99 1974.13 2261.07 2029.84 2296.61 2051.93L2307.81 2058.98L2559.14 2059.94C2741 2060.58 2814 2059.94 2823.28 2057.38C2847.61 2050.33 2863.3 2029.2 2863.3 2003.59C2863.3 1984.06 2877.07 2005.19 2676.97 1716.08C2464.05 1408.4 2469.5 1416.4 2469.5 1413.52C2469.5 1412.24 2500.87 1398.79 2539.29 1383.42C2581.56 1366.46 2612.29 1352.37 2618.05 1347.25C2635.34 1331.24 2640.79 1305.94 2631.5 1284.81C2628.94 1279.05 2579.63 1219.82 2521.68 1152.58C2464.05 1085.67 2378.57 986.098 2331.83 931.99C2199.28 777.349 2164.38 737.649 2155.09 730.925C2141.33 720.68 2115.71 720.039 2099.38 729.324Z" fill="url(#paint0_linear_227_6)"/>
<defs>
<linearGradient id="paint0_linear_227_6" x1="877.471" y1="2970.65" x2="2619.58" y2="816.729" gradientUnits="userSpaceOnUse">
<stop offset="0.340787" stop-color="#3F4648"/>
<stop offset="1" stop-color="#00CA40"/>
</linearGradient>
</defs>
</svg>
