<svg width="808" height="808" viewBox="0 0 808 808" fill="none" xmlns="http://www.w3.org/2000/svg">
<rect x="16.5" y="16.5" width="775" height="775" rx="387.5" fill="white"/>
<rect x="16.5" y="16.5" width="775" height="775" rx="387.5" stroke="black" stroke-width="33"/>
<path d="M475.194 133.328L344.253 316.392L322.385 196.751L293.018 330.836L261.172 291.226V381.213V405.057V406.524C261.172 410.663 261.219 414.51 261.303 418.187C261.92 442.99 265.366 458.315 280.861 478.428C284.437 483.07 288.6 487.944 293.575 493.281C294.703 494.486 295.954 495.606 297.321 496.664C305.254 502.798 317.35 506.281 334.289 507.432C338.476 507.717 342.862 507.91 347.667 507.91C352.525 507.91 357.561 507.755 362.713 507.485C367.154 507.254 371.666 506.929 376.23 506.528C426.484 502.117 481.643 488.616 484.408 487.936L537.775 474.765L433.305 456.459L585.496 402.343H433.514L674 147.56L414.041 326.364L475.194 133.328ZM409.329 394.205L400.825 403.219L391.935 412.643L379.785 425.519H394.7H406.317H417.904H451.172L417.996 437.314L406.032 441.57L393.549 446.011L349.536 461.66L342.676 464.102L352.161 465.762L381.876 470.968L394.537 473.185L406.742 475.325L419.239 477.519C414.28 478.346 409.136 479.125 403.975 479.882C398.623 480.662 393.255 481.349 387.84 481.983C381.367 482.747 374.963 483.373 368.661 483.836C365.764 484.052 362.976 484.191 360.164 484.33C355.931 484.53 351.674 484.755 347.697 484.755C319.518 484.755 312.135 479.185 310.543 477.486C306.897 473.578 303.816 470.056 301.112 466.742C285.185 447.176 284.374 435.621 284.374 406.546V389.398V373.497V359.307V357.036L285.587 358.55L292.886 367.618L300.217 376.732L305.323 383.081L307.478 373.233L310.382 359.979L313.156 347.327L320.363 314.406L326.071 345.635L328.171 357.113L330.271 368.59L331.322 374.345L335.331 368.737L343.048 357.946L350.479 347.55L408.936 265.819L379.174 359.777L375.513 371.34L371.805 383.057L371.573 383.691L372.09 383.336L381.908 376.584L391.671 369.871L507.481 290.219L409.329 394.205Z" fill="#010002"/>
<path d="M409.329 394.205L400.825 403.219L391.935 412.643L379.785 425.519H394.7H406.317H417.904H451.172L417.996 437.314L406.032 441.57L393.549 446.011L349.536 461.66L342.676 464.102L352.161 465.762L381.876 470.968L394.537 473.185L406.742 475.325L419.239 477.519C414.28 478.346 409.136 479.125 403.975 479.882C398.623 480.662 393.255 481.349 387.84 481.983C381.367 482.747 374.963 483.373 368.661 483.836C365.764 484.052 362.976 484.191 360.164 484.33C355.931 484.53 351.674 484.755 347.697 484.755C319.518 484.755 312.135 479.185 310.543 477.486C306.897 473.578 303.816 470.056 301.112 466.742C285.185 447.176 284.374 435.621 284.374 406.546V389.398V373.497V359.307V357.036L285.587 358.55L292.886 367.618L300.217 376.732L305.323 383.081L307.478 373.233L310.382 359.979L313.156 347.327L320.363 314.406L326.071 345.635L328.171 357.113L330.271 368.59L331.322 374.345L335.331 368.737L343.048 357.946L350.479 347.55L408.936 265.819L379.174 359.777L375.513 371.34L371.805 383.057L371.573 383.691L372.09 383.336L381.908 376.584L391.671 369.871L507.481 290.219L409.329 394.205Z" fill="#FD4755"/>
<path d="M343.877 364L302.961 421.18L296.128 383.81L286.951 425.691L277 413.319V441.426V448.874V449.332C277 450.625 277.015 451.827 277.041 452.975C277.234 460.722 278.31 465.509 283.152 471.791C284.27 473.241 285.571 474.764 287.125 476.431C287.478 476.807 287.869 477.157 288.296 477.487C290.775 479.403 294.554 480.491 299.848 480.851C301.156 480.94 302.527 481 304.028 481C305.546 481 307.12 480.952 308.729 480.867C310.117 480.795 311.527 480.693 312.953 480.568C328.657 479.191 345.892 474.974 346.756 474.761L363.433 470.647L330.788 464.929L378.344 448.026H330.853L406 368.446L324.768 424.294L343.877 364ZM323.296 445.485L320.639 448.3L317.861 451.244L314.064 455.265H318.725H322.355H325.975H336.371L326.004 458.949L322.266 460.279L318.365 461.666L304.612 466.554L302.468 467.317L305.432 467.835L314.718 469.461L318.674 470.154L322.487 470.822L326.393 471.507C324.843 471.766 323.236 472.009 321.623 472.246C319.95 472.489 318.273 472.704 316.581 472.902C314.558 473.14 312.557 473.336 310.588 473.48C309.683 473.548 308.812 473.591 307.933 473.635C306.61 473.697 305.28 473.767 304.037 473.767C295.232 473.767 292.925 472.028 292.427 471.497C291.288 470.277 290.325 469.176 289.48 468.141C284.504 462.03 284.25 458.421 284.25 449.339V443.983V439.016V434.584V433.875L284.629 434.348L286.91 437.18L289.201 440.027L290.796 442.01L291.47 438.934L292.377 434.794L293.244 430.842L295.496 420.56L297.28 430.314L297.936 433.899L298.592 437.484L298.921 439.281L300.173 437.529L302.585 434.159L304.906 430.912L323.173 405.383L313.873 434.731L312.729 438.343L311.57 442.003L311.498 442.2L311.66 442.089L314.727 439.981L317.778 437.884L353.966 413.005L323.296 445.485Z" fill="#FD8300"/>
<path d="M323.296 445.485L320.639 448.3L317.861 451.244L314.064 455.265H318.725H322.355H325.975H336.371L326.004 458.949L322.266 460.279L318.365 461.666L304.612 466.554L302.468 467.317L305.432 467.835L314.718 469.461L318.674 470.154L322.487 470.822L326.393 471.507C324.843 471.766 323.236 472.009 321.623 472.246C319.95 472.489 318.273 472.704 316.581 472.902C314.558 473.14 312.557 473.336 310.588 473.48C309.683 473.548 308.812 473.591 307.933 473.635C306.61 473.697 305.28 473.767 304.037 473.767C295.232 473.767 292.925 472.028 292.427 471.497C291.288 470.277 290.325 469.176 289.48 468.141C284.504 462.03 284.25 458.421 284.25 449.339V443.983V439.016V434.584V433.875L284.629 434.348L286.91 437.18L289.201 440.027L290.796 442.01L291.47 438.934L292.377 434.794L293.244 430.842L295.496 420.56L297.28 430.314L297.936 433.899L298.592 437.484L298.921 439.281L300.173 437.529L302.585 434.159L304.906 430.912L323.173 405.383L313.873 434.731L312.729 438.343L311.57 442.003L311.498 442.2L311.66 442.089L314.727 439.981L317.778 437.884L353.966 413.005L323.296 445.485Z" fill="#FFC42D"/>
<path d="M556.94 533.928L390.977 525.926L553.224 548.28C577.949 542.757 556.94 533.928 556.94 533.928Z" fill="#010002"/>
<path d="M271.054 205.82L284.285 295.753C284.285 295.753 280.925 193.584 282.354 182.068C283.784 170.559 265.369 167.13 271.054 205.82Z" fill="#010002"/>
<path d="M536.235 172.033L451.492 272.617C451.492 272.617 559.276 171.693 573.211 162.393C587.137 153.086 572.685 128.755 536.235 172.033Z" fill="#010002"/>
<g clip-path="url(#clip0_279_219)">
<path d="M238.063 435.265C215.795 421.64 186.305 423.499 165.859 441.766L165.196 442.359C144.75 460.626 139.593 489.721 150.634 513.378L238.063 435.265Z" fill="#777777"/>
<path d="M312.795 515.119C312.333 514.564 311.864 514.012 311.379 513.469C266.102 504.488 251.349 491.15 251.63 446.594C251.145 446.051 250.649 445.522 250.148 445.001L158.95 526.481C159.412 527.036 159.882 527.589 160.367 528.132L220.115 595.006C220.6 595.549 221.095 596.078 221.596 596.599L312.795 515.119Z" fill="#777777"/>
<path d="M294.141 689.605L326.517 633.464L300.378 604.208C302.274 602.871 304.115 601.416 305.886 599.834L306.55 599.241C308.321 597.659 309.973 595.993 311.514 594.258L337.653 623.515L397.072 597.644L353.026 548.344L326.5 559.894C327.55 549.182 325.778 538.217 321.112 528.221L233.682 606.335C243.091 612.093 253.788 615.085 264.549 615.242L250.096 640.305L294.141 689.605Z" fill="#777777"/>
<path d="M222.652 507.095C224.327 505.645 226.855 505.823 228.299 507.491L234.116 514.211L237.086 517.642C238.53 519.31 238.344 521.837 236.669 523.287C234.993 524.737 232.466 524.559 231.021 522.891L222.235 512.741C221.454 511.838 221.149 510.684 221.3 509.585C221.428 508.653 221.883 507.761 222.652 507.095Z" fill="black"/>
<path d="M244.095 531.867C245.636 530.533 245.808 528.208 244.479 526.673C243.15 525.138 240.824 524.974 239.284 526.308C237.743 527.642 237.571 529.967 238.9 531.502C240.229 533.037 242.555 533.2 244.095 531.867Z" fill="black"/>
<path fill-rule="evenodd" clip-rule="evenodd" d="M228.874 493.928C217.62 490.252 206.462 499.911 208.487 511.576L214.207 544.55C216.29 556.554 230.686 561.653 239.922 553.658L266.017 531.069C275.253 523.074 272.27 508.096 260.688 504.314L228.874 493.928ZM258.779 510.097L226.964 499.711C221.205 497.83 215.489 501.652 214.49 507.127C214.294 508.203 214.28 509.342 214.484 510.515L220.204 543.489C221.478 550.84 230.293 553.961 235.947 549.066L257.363 530.528L262.042 526.478C267.697 521.583 265.871 512.412 258.779 510.097Z" fill="black"/>
<path d="M258.779 510.097L226.964 499.711C221.205 497.83 215.489 501.652 214.49 507.127L221.3 509.585C221.428 508.653 221.883 507.761 222.652 507.095C224.327 505.645 226.855 505.823 228.299 507.491L234.116 514.211L254.173 521.452C257.712 522.292 258.534 524.168 257.363 530.528L262.042 526.478C267.697 521.583 265.871 512.412 258.779 510.097Z" fill="#FFB822"/>
<path fill-rule="evenodd" clip-rule="evenodd" d="M214.484 510.515L220.204 543.489C221.478 550.84 230.293 553.961 235.947 549.066L257.363 530.528C258.534 524.168 257.712 522.292 254.173 521.452L234.116 514.211L237.086 517.642C238.53 519.31 238.344 521.837 236.669 523.287C234.993 524.737 232.466 524.559 231.021 522.891L222.235 512.741C221.454 511.838 221.149 510.684 221.3 509.585L214.49 507.127C214.294 508.203 214.28 509.342 214.484 510.515ZM244.095 531.867C245.636 530.533 245.808 528.208 244.479 526.673C243.15 525.138 240.824 524.974 239.284 526.308C237.743 527.642 237.571 529.967 238.9 531.502C240.229 533.037 242.555 533.2 244.095 531.867Z" fill="#FFC42D"/>
</g>
<defs>
<clipPath id="clip0_279_219">
<rect width="258" height="258" fill="white" transform="translate(406.086 437.497) rotate(93.2211)"/>
</clipPath>
</defs>
</svg>
