<svg width="808" height="808" viewBox="0 0 808 808" fill="none" xmlns="http://www.w3.org/2000/svg">
<rect x="16.5" y="16.5" width="775" height="775" rx="387.5" fill="white"/>
<rect x="16.5" y="16.5" width="775" height="775" rx="387.5" stroke="black" stroke-width="33"/>
<path d="M496.71 183.5H552.249L569.056 513.5H478.969L496.71 183.5Z" fill="#D7D0D6" stroke="black" stroke-width="17" stroke-linejoin="round"/>
<path d="M454.227 347.854H478.31V513.771H239.227V344.607L331.977 298.232V332.882C331.977 342.174 341.755 348.218 350.067 344.062L441.727 298.232V335.354C441.727 342.258 447.323 347.854 454.227 347.854Z" fill="#E5E1E5" stroke="black" stroke-width="17"/>
<path d="M267.312 375.938H303.896V412.521H267.312V375.938ZM340.479 375.938H377.063V412.521H340.479V375.938ZM413.646 375.938H450.229V412.521H413.646V375.938ZM267.312 449.104H303.896V485.688H267.312V449.104ZM340.479 449.104H377.063V485.688H340.479V449.104ZM413.646 449.104H450.229V485.688H413.646V449.104Z" fill="#99DDFF"/>
<path d="M417.361 481.209C424.268 481.209 429.861 486.806 429.861 493.709V521.516V535.709C429.861 542.613 424.268 548.209 417.361 548.209C410.455 548.209 404.861 542.613 404.861 535.709V493.709C404.861 489.974 406.499 486.622 409.095 484.331C411.298 482.388 414.192 481.209 417.361 481.209Z" fill="black"/>
<path d="M417.361 583.709C423.713 583.709 428.861 578.561 428.861 572.209C428.861 565.858 423.713 560.709 417.361 560.709C411.01 560.709 405.861 565.858 405.861 572.209C405.861 578.561 411.01 583.709 417.361 583.709Z" fill="black"/>
<path fill-rule="evenodd" clip-rule="evenodd" d="M458.885 462.803C439.861 431.066 393.861 431.066 374.838 462.803L321.049 552.513C301.471 585.173 324.994 626.709 363.072 626.709H470.65C508.729 626.709 532.252 585.173 512.674 552.513L458.885 462.803ZM496.377 562.283L442.588 472.573C432.852 456.333 411.585 453.666 398.062 464.573C395.405 466.716 393.047 469.383 391.135 472.573L337.346 562.283C325.354 582.279 339.76 607.709 363.072 607.709H451.359H470.65C493.963 607.709 508.369 582.279 496.377 562.283Z" fill="black"/>
<path d="M496.377 562.283L442.588 472.573C432.852 456.333 411.585 453.666 398.062 464.573L409.095 484.331C411.298 482.388 414.192 481.209 417.361 481.209C424.268 481.209 429.861 486.806 429.861 493.709V521.516L462.359 579.709C468.985 588.945 467.095 595.064 451.359 607.709H470.65C493.963 607.709 508.369 582.279 496.377 562.283Z" fill="#FFB822"/>
<path fill-rule="evenodd" clip-rule="evenodd" d="M391.135 472.573L337.346 562.283C325.354 582.279 339.76 607.709 363.072 607.709H451.359C467.095 595.064 468.985 588.945 462.359 579.709L429.861 521.516V535.709C429.861 542.613 424.268 548.209 417.361 548.209C410.455 548.209 404.861 542.613 404.861 535.709V493.709C404.861 489.974 406.499 486.622 409.095 484.331L398.062 464.573C395.405 466.716 393.047 469.383 391.135 472.573ZM417.361 583.709C423.713 583.709 428.861 578.561 428.861 572.209C428.861 565.858 423.713 560.709 417.361 560.709C411.01 560.709 405.861 565.858 405.861 572.209C405.861 578.561 411.01 583.709 417.361 583.709Z" fill="#FFC42D"/>
</svg>
