<svg width="808" height="808" viewBox="0 0 808 808" fill="none" xmlns="http://www.w3.org/2000/svg">
<rect x="16.5" y="16.5" width="775" height="775" rx="387.5" fill="white"/>
<rect x="16.5" y="16.5" width="775" height="775" rx="387.5" stroke="black" stroke-width="33"/>
<path fill-rule="evenodd" clip-rule="evenodd" d="M390.525 222.053C385.69 217.56 378.195 217.6 373.408 222.145L239.659 349.145L239.62 349.182L204.12 383.182C199.134 387.957 198.963 395.87 203.738 400.855C208.513 405.841 216.426 406.012 221.412 401.237L235.766 387.489V413.209C235.766 420.113 241.362 425.709 248.266 425.709C255.169 425.709 260.766 420.113 260.766 413.209V363.577L382.108 248.359L471.266 331.213L505.766 363.273V510.209H438.766V483.709V397.209C438.766 390.306 433.169 384.709 426.266 384.709H337.766C330.862 384.709 325.266 390.306 325.266 397.209V483.209V510.209H260.766V483.209V459.709C260.766 452.806 255.169 447.209 248.266 447.209C241.362 447.209 235.766 452.806 235.766 459.709V522.709C235.766 529.613 241.362 535.209 248.266 535.209H518.266C525.169 535.209 530.766 529.613 530.766 522.709V386.672L546.756 401.366L546.808 401.413C551.881 406.075 559.77 405.753 564.446 400.693C569.122 395.633 568.822 387.743 563.775 383.053L563.723 383.005L390.525 222.053ZM413.766 510.209H350.266V483.209V409.709H413.766V483.209V510.209Z" fill="black"/>
<path d="M260.766 510.209H325.266V483.209H260.766V510.209Z" fill="#D7D0D6"/>
<path d="M505.766 510.209V363.273L471.266 331.213V472.209C471.282 481.582 468.529 483.717 460.766 483.709H438.766V510.209H505.766Z" fill="#D7D0D6"/>
<path d="M260.766 413.209C260.766 420.113 255.169 425.709 248.266 425.709V447.209C255.169 447.209 260.766 452.806 260.766 459.709V483.209H325.266V397.209C325.266 390.306 330.862 384.709 337.766 384.709H426.266C433.169 384.709 438.766 390.306 438.766 397.209V483.709H460.766C468.529 483.717 471.282 481.582 471.266 472.209V331.213L382.108 248.359L260.766 363.577V413.209Z" fill="#E5E1E5"/>
<path d="M413.766 409.709H350.266V483.209H413.766V409.709Z" fill="#FE646F"/>
<path d="M350.266 510.209H413.766V483.209H350.266V510.209Z" fill="#FD4755"/>
<path d="M516.268 205.209C523.174 205.209 528.768 210.806 528.768 217.709V245.516V259.709C528.768 266.613 523.174 272.209 516.268 272.209C509.361 272.209 503.768 266.613 503.768 259.709V217.709C503.768 213.974 505.405 210.622 508.002 208.331C510.205 206.388 513.098 205.209 516.268 205.209Z" fill="black"/>
<path d="M516.268 307.709C522.619 307.709 527.768 302.561 527.768 296.209C527.768 289.858 522.619 284.709 516.268 284.709C509.916 284.709 504.768 289.858 504.768 296.209C504.768 302.561 509.916 307.709 516.268 307.709Z" fill="black"/>
<path fill-rule="evenodd" clip-rule="evenodd" d="M557.791 186.803C538.768 155.066 492.768 155.066 473.744 186.803L419.955 276.513C400.377 309.173 423.9 350.709 461.979 350.709H569.557C607.635 350.709 631.158 309.173 611.58 276.513L557.791 186.803ZM595.283 286.283L541.494 196.573C531.758 180.333 510.491 177.666 496.968 188.573C494.311 190.716 491.954 193.383 490.041 196.573L436.252 286.283C424.26 306.279 438.666 331.709 461.979 331.709H550.266H569.557C592.869 331.709 607.275 306.279 595.283 286.283Z" fill="black"/>
<path d="M595.283 286.283L541.494 196.573C531.758 180.333 510.491 177.666 496.968 188.573L508.002 208.331C510.205 206.388 513.098 205.209 516.268 205.209C523.174 205.209 528.768 210.806 528.768 217.709V245.516L561.266 303.709C567.891 312.945 566.001 319.064 550.266 331.709H569.557C592.869 331.709 607.275 306.279 595.283 286.283Z" fill="#FFC344"/>
<path fill-rule="evenodd" clip-rule="evenodd" d="M490.041 196.573L436.252 286.283C424.26 306.279 438.666 331.709 461.979 331.709H550.266C566.001 319.064 567.891 312.945 561.266 303.709L528.768 245.516V259.709C528.768 266.613 523.174 272.209 516.268 272.209C509.361 272.209 503.768 266.613 503.768 259.709V217.709C503.768 213.974 505.405 210.622 508.002 208.331L496.968 188.573C494.311 190.716 491.954 193.383 490.041 196.573ZM516.268 307.709C522.619 307.709 527.768 302.561 527.768 296.209C527.768 289.858 522.619 284.709 516.268 284.709C509.916 284.709 504.768 289.858 504.768 296.209C504.768 302.561 509.916 307.709 516.268 307.709Z" fill="#FFD15B"/>
<path d="M190 479C222.462 498.179 239.237 496.87 267.246 479C297.748 498.144 314.671 498.744 344.493 479C373.65 497.979 390.896 498.936 423.249 479C456.5 499.165 473.359 497.256 501.502 479C532.928 498.411 550.097 497.837 579 479V544.032V611.838C548.337 631.785 531.457 629.358 501.502 611.838C468.857 631.456 451.664 629.379 421.991 611.838C390.045 631.518 373.252 629.906 344.493 611.838C313.918 630.551 297.767 630.506 267.246 611.838C235.539 631.224 218.495 629.594 190 611.838V545.419V479Z" fill="#1A83FF"/>
<path d="M190 545.419V611.838C218.495 629.594 235.539 631.224 267.246 611.838C297.767 630.506 313.918 630.551 344.493 611.838C373.252 629.906 390.045 631.518 421.991 611.838C451.664 629.379 468.857 631.456 501.502 611.838C531.457 629.358 548.338 631.785 579 611.838V544.032M190 545.419V479C222.462 498.179 239.237 496.87 267.246 479C297.748 498.144 314.671 498.744 344.493 479C373.65 497.979 390.896 498.936 423.249 479C456.5 499.165 473.359 497.256 501.502 479C532.928 498.411 550.097 497.837 579 479V544.032M190 545.419C219.864 565.697 236.708 564.386 267.246 544.032C299.701 565.515 316.511 563.915 344.493 544.032C378.302 567.276 395.196 564.844 423.249 544.032C453.87 563.702 470.881 563.076 501.502 544.032C532.712 564.796 549.729 563.911 579 544.032" stroke="black" stroke-width="25" stroke-linecap="round" stroke-linejoin="round"/>
</svg>
