<svg width="808" height="808" viewBox="0 0 808 808" fill="none" xmlns="http://www.w3.org/2000/svg">
<rect x="16.5" y="16.5" width="775" height="775" rx="387.5" fill="white"/>
<rect x="16.5" y="16.5" width="775" height="775" rx="387.5" stroke="black" stroke-width="33"/>
<g clip-path="url(#clip0_277_81)">
<path d="M473.497 167C452.886 167.029 432.709 172.927 415.329 184.005C397.947 195.084 384.081 210.885 375.354 229.558C347.314 226.892 319.337 235.234 297.336 252.82C275.335 270.407 261.036 295.86 257.461 323.798C242.77 327.415 229.909 336.278 221.299 348.718C212.69 361.159 208.926 376.318 210.717 391.341C212.509 406.363 219.731 420.213 231.024 430.28C242.317 440.348 256.902 445.939 272.031 446H280.37H550.969H566.469C585.756 445.934 604.325 438.678 618.548 425.651C632.771 412.623 641.625 394.761 643.38 375.553C645.135 356.346 639.666 337.175 628.04 321.785C616.414 306.396 599.467 295.894 580.512 292.333C581.442 286.753 581.907 281.142 581.969 275.5C581.969 246.724 570.537 219.127 550.19 198.779C529.849 178.438 502.263 167.007 473.497 167Z" fill="url(#paint0_linear_277_81)"/>
<path d="M470.369 350.458C428.55 350.52 393.055 376.25 376.098 413.078L374.858 415.558L372.223 415.806C333.566 418.596 303 452.014 303 492.686C303 535.156 336.232 570 377.4 570H557.2C588.045 570 613 543.867 613 512.123C613.036 500.818 609.73 489.755 603.497 480.323C597.265 470.892 588.384 463.513 577.97 459.113L575.304 457.997L574.994 455.145C572.39 397.175 526.882 350.52 470.369 350.458Z" fill="url(#paint1_linear_277_81)"/>
<path d="M458.361 488.209C465.268 488.209 470.861 493.806 470.861 500.709V528.516V542.709C470.861 549.613 465.268 555.209 458.361 555.209C451.455 555.209 445.861 549.613 445.861 542.709V500.709C445.861 496.974 447.499 493.622 450.095 491.331C452.298 489.388 455.192 488.209 458.361 488.209Z" fill="black"/>
<path d="M458.361 590.709C464.713 590.709 469.861 585.561 469.861 579.209C469.861 572.858 464.713 567.709 458.361 567.709C452.01 567.709 446.861 572.858 446.861 579.209C446.861 585.561 452.01 590.709 458.361 590.709Z" fill="black"/>
<path fill-rule="evenodd" clip-rule="evenodd" d="M499.885 469.803C480.861 438.066 434.861 438.066 415.838 469.803L362.049 559.513C342.471 592.173 365.994 633.709 404.072 633.709H511.65C549.729 633.709 573.252 592.173 553.674 559.513L499.885 469.803ZM537.377 569.283L483.588 479.573C473.852 463.333 452.585 460.666 439.062 471.573C436.405 473.716 434.047 476.383 432.135 479.573L378.346 569.283C366.354 589.279 380.76 614.709 404.072 614.709H492.359H511.65C534.963 614.709 549.369 589.279 537.377 569.283Z" fill="black"/>
<path d="M537.377 569.283L483.588 479.573C473.852 463.333 452.585 460.666 439.062 471.573L450.095 491.331C452.298 489.388 455.192 488.209 458.361 488.209C465.268 488.209 470.861 493.806 470.861 500.709V528.516L503.359 586.709C509.985 595.945 508.095 602.064 492.359 614.709H511.65C534.963 614.709 549.369 589.279 537.377 569.283Z" fill="#FFB822"/>
<path fill-rule="evenodd" clip-rule="evenodd" d="M432.135 479.573L378.346 569.283C366.354 589.279 380.76 614.709 404.072 614.709H492.359C508.095 602.064 509.985 595.945 503.359 586.709L470.861 528.516V542.709C470.861 549.613 465.268 555.209 458.361 555.209C451.455 555.209 445.861 549.613 445.861 542.709V500.709C445.861 496.974 447.499 493.622 450.095 491.331L439.062 471.573C436.405 473.716 434.047 476.383 432.135 479.573ZM458.361 590.709C464.713 590.709 469.861 585.561 469.861 579.209C469.861 572.858 464.713 567.709 458.361 567.709C452.01 567.709 446.861 572.858 446.861 579.209C446.861 585.561 452.01 590.709 458.361 590.709Z" fill="#FFC42D"/>
</g>
<defs>
<linearGradient id="paint0_linear_277_81" x1="426.992" y1="167" x2="426.992" y2="446" gradientUnits="userSpaceOnUse">
<stop stop-color="#D6D6D6"/>
<stop offset="1" stop-color="#73B1C1"/>
</linearGradient>
<linearGradient id="paint1_linear_277_81" x1="458" y1="350.458" x2="458" y2="570" gradientUnits="userSpaceOnUse">
<stop stop-color="#D6D6D6"/>
<stop offset="1" stop-color="#73B1C1"/>
</linearGradient>
<clipPath id="clip0_277_81">
<rect width="496" height="496" fill="white" transform="translate(179 136)"/>
</clipPath>
</defs>
</svg>
