<svg width="808" height="808" viewBox="0 0 808 808" fill="none" xmlns="http://www.w3.org/2000/svg">
<rect x="16.5" y="16.5" width="775" height="775" rx="387.5" fill="white"/>
<rect x="16.5" y="16.5" width="775" height="775" rx="387.5" stroke="black" stroke-width="33"/>
<path d="M499.259 372.172H490.126H461.784H430.914V396.357H461.784H462.783H479.163H497.211H513.127H543.792V372.172H521.171" fill="#F28838"/>
<path d="M533.481 347.985H490.126H461.785H441.226C435.531 347.985 430.914 352.602 430.914 358.297V372.171H543.793V358.297C543.792 352.603 539.177 347.985 533.481 347.985Z" fill="#FFB92E"/>
<path d="M549.025 448.374L546.031 426.479C543.953 408.006 543.793 396.359 543.793 396.359H475.955H430.912C430.912 396.359 429.993 462.236 404.57 529.141C407.653 537.254 411.096 545.382 414.94 553.409H415.352H475.954H580.503C562.985 516.838 553.818 478.183 549.025 448.374Z" fill="#C1B79F"/>
<path d="M442.923 450.157L445.916 427.51C447.995 408.405 448.155 396.358 448.155 396.358H430.912C430.912 396.358 429.993 462.235 404.57 529.141C407.502 536.856 410.772 544.584 414.391 552.227C430.003 516.388 438.406 479.209 442.923 450.157Z" fill="#C9B585"/>
<path d="M579.43 553.409H580.504C580.316 553.019 580.135 552.627 579.95 552.237C579.78 552.627 579.602 553.018 579.43 553.409Z" fill="#C9B585"/>
<path d="M430.914 372.172V396.357H449.385V372.172H430.914Z" fill="#EF711D"/>
<path d="M459.698 347.985H441.226C435.531 347.985 430.914 352.602 430.914 358.297V372.171H449.386V358.297C449.386 352.603 454.002 347.985 459.698 347.985Z" fill="#EF9A1D"/>
<path d="M580.923 553.409H415.359C420.08 553.409 423.907 558.027 423.907 563.721V593.814H589.471V563.721C589.471 558.026 585.645 553.409 580.923 553.409Z" fill="#72706D"/>
<path d="M436.409 553.409H415.359C420.08 553.409 423.907 558.027 423.907 563.721V593.814H444.956V563.721C444.955 558.026 441.13 553.409 436.409 553.409Z" fill="#6B6861"/>
<path d="M335.416 372.172H326.284H297.941H267.07V396.357H297.941H298.94H315.32H333.369H349.284H379.95V372.172H357.328" fill="#F28838"/>
<path d="M369.639 347.985H326.284H297.943H277.382C271.687 347.985 267.07 352.602 267.07 358.297V372.171H379.949V358.297C379.95 352.603 375.334 347.985 369.639 347.985Z" fill="#FFB92E"/>
<path d="M379.952 396.357H312.114H267.071C267.071 396.357 265.918 479.18 230.359 553.409H312.112H416.662C381.105 479.18 379.952 396.357 379.952 396.357Z" fill="#CCC3A8"/>
<path d="M284.257 396.357H267.071C267.071 396.357 265.918 479.18 230.359 553.409H249.971C283.152 478.07 284.257 396.357 284.257 396.357Z" fill="#C9B585"/>
<path d="M425.623 593.813V563.72C425.623 558.026 421.797 553.409 417.076 553.409H229.948C225.227 553.409 221.398 558.026 221.398 563.72V593.813H425.623Z" fill="#7C7A75"/>
<path d="M267.07 372.172V396.357H285.543V372.172H267.07Z" fill="#EF711D"/>
<path d="M295.854 347.985H277.382C271.687 347.985 267.07 352.602 267.07 358.297V372.171H285.541V358.297C285.543 352.603 290.159 347.985 295.854 347.985Z" fill="#EF9A1D"/>
<path opacity="0.15" d="M323.889 358.991V373.798V399.613H323.891C323.891 399.613 324.918 478.075 354.773 553.409H416.659C381.101 479.179 379.948 396.356 379.948 396.356H379.946V372.172V358.298C379.946 352.603 375.33 347.986 369.634 347.986H326.279H313.578C319.273 347.985 323.889 352.913 323.889 358.991Z" fill="#F5F5F5"/>
<path opacity="0.15" d="M487.733 358.991V373.798V399.613H487.734C487.734 399.613 488.762 478.075 518.616 553.409H580.502C544.945 479.179 543.791 396.356 543.791 396.356H543.79V372.172V358.298C543.79 352.603 539.173 347.986 533.478 347.986H490.123H477.422C483.116 347.985 487.733 352.913 487.733 358.991Z" fill="#F5F5F5"/>
<path d="M248.419 553.409H229.948C225.227 553.409 221.398 558.027 221.398 563.721V593.814H239.87V563.721C239.87 558.026 243.698 553.409 248.419 553.409Z" fill="#6B6861"/>
<path d="M534.684 618H590.87C596.817 618 601.639 613.179 601.639 607.23V604.584C601.639 598.636 596.818 593.814 590.87 593.814H526.138H281.868H217.137C211.189 593.814 206.367 598.635 206.367 604.584V607.23C206.367 613.178 211.188 618 217.137 618H281.869H512.915" fill="#CCC3A8"/>
<path d="M222.433 607.152V604.505C222.433 598.557 227.254 593.735 233.202 593.735H217.137C211.189 593.735 206.367 598.556 206.367 604.505V607.152C206.367 613.099 211.188 617.921 217.137 617.921H233.203C227.255 617.921 222.433 613.099 222.433 607.152Z" fill="#C9B585"/>
<path d="M440 321.5V348H481V321.5H440Z" fill="#FFEDC6"/>
<path d="M534 204H440V295V321.5H481V348H534V204Z" fill="#FFD686"/>
<path d="M274 321.5V348H315V321.5H274Z" fill="#FFEDC6"/>
<path d="M368 204H274V295V321.5H315V348H368V204Z" fill="#FFD686"/>
<path d="M536 295C554.778 295 570 279.778 570 261C570 242.222 554.778 227 536 227H492.5C534.5 227 535.5 295 492.5 295H536Z" fill="#FFD686"/>
<path d="M272 227C253.222 227 238 242.222 238 261C238 279.778 253.222 295 272 295H492.5C535.5 295 534.5 227 492.5 227H272Z" fill="#FFEDC6"/>
<path d="M667 263C685.778 263 701 247.778 701 229C701 210.222 685.778 195 667 195H605.5C680.645 195 682.434 263 605.5 263H667Z" fill="#FFD686"/>
<path d="M141 195C122.222 195 107 210.222 107 229C107 247.778 122.222 263 141 263H605.5C682.434 263 680.645 195 605.5 195H141Z" fill="#FFEDC6"/>
</svg>
