<svg width="808" height="808" viewBox="0 0 808 808" fill="none" xmlns="http://www.w3.org/2000/svg">
<rect x="16.5" y="16.5" width="775" height="775" rx="387.5" fill="white"/>
<rect x="16.5" y="16.5" width="775" height="775" rx="387.5" stroke="black" stroke-width="33"/>
<g clip-path="url(#clip0_286_32)">
<path d="M613.375 422.917H404.5V585.375H613.375V422.917Z" fill="#81D4FA"/>
<path d="M334.875 214.042H195.625V585.375H334.875V214.042Z" fill="#81D4FA"/>
<path d="M311.667 190.833H288.458C288.458 203.598 278.015 214.042 265.25 214.042C252.485 214.042 242.042 203.598 242.042 190.833H218.833C218.833 203.598 208.39 214.042 195.625 214.042V237.25C209.55 237.25 222.315 231.448 230.438 221.004C238.56 230.288 251.325 237.25 265.25 237.25C279.175 237.25 291.94 231.448 300.062 221.004C308.185 230.288 320.95 237.25 334.875 237.25V214.042C322.11 214.042 311.667 203.598 311.667 190.833Z" fill="#1976D2"/>
<path d="M311.667 260.458H288.458C288.458 273.223 278.015 283.667 265.25 283.667C252.485 283.667 242.042 273.223 242.042 260.458H218.833C218.833 273.223 208.39 283.667 195.625 283.667V306.875C209.55 306.875 222.315 301.073 230.438 290.629C238.56 299.913 251.325 306.875 265.25 306.875C279.175 306.875 291.94 301.073 300.062 290.629C308.185 299.913 320.95 306.875 334.875 306.875V283.667C322.11 283.667 311.667 273.223 311.667 260.458Z" fill="#1976D2"/>
<path d="M311.667 330.083H288.458C288.458 342.848 278.015 353.292 265.25 353.292C252.485 353.292 242.042 342.848 242.042 330.083H218.833C218.833 342.848 208.39 353.292 195.625 353.292V376.5C209.55 376.5 222.315 370.698 230.438 360.254C238.56 369.538 251.325 376.5 265.25 376.5C279.175 376.5 291.94 370.698 300.062 360.254C308.185 369.538 320.95 376.5 334.875 376.5V353.292C322.11 353.292 311.667 342.848 311.667 330.083Z" fill="#1976D2"/>
<path d="M311.667 399.708H288.458C288.458 412.473 278.015 422.917 265.25 422.917C252.485 422.917 242.042 412.473 242.042 399.708H218.833C218.833 412.473 208.39 422.917 195.625 422.917V446.125C209.55 446.125 222.315 440.323 230.438 429.879C238.56 439.163 251.325 446.125 265.25 446.125C279.175 446.125 291.94 440.323 300.062 429.879C308.185 439.163 320.95 446.125 334.875 446.125V422.917C322.11 422.917 311.667 412.473 311.667 399.708Z" fill="#1976D2"/>
<path d="M311.667 469.333H288.458C288.458 482.098 278.015 492.542 265.25 492.542C252.485 492.542 242.042 482.098 242.042 469.333H218.833C218.833 482.098 208.39 492.542 195.625 492.542V515.75C209.55 515.75 222.315 509.948 230.438 499.504C238.56 508.788 251.325 515.75 265.25 515.75C279.175 515.75 291.94 509.948 300.062 499.504C308.185 508.788 320.95 515.75 334.875 515.75V492.542C322.11 492.542 311.667 482.098 311.667 469.333Z" fill="#1976D2"/>
<path d="M311.667 538.958H288.458C288.458 551.723 278.015 562.167 265.25 562.167C252.485 562.167 242.042 551.723 242.042 538.958H218.833C218.833 551.723 208.39 562.167 195.625 562.167V585.375C209.55 585.375 222.315 579.573 230.438 569.129C238.56 578.413 251.325 585.375 265.25 585.375C279.175 585.375 291.94 579.573 300.062 569.129C308.185 578.413 320.95 585.375 334.875 585.375V562.167C322.11 562.167 311.667 551.723 311.667 538.958Z" fill="#1976D2"/>
<path d="M590.167 469.333H566.958C566.958 482.098 556.515 492.542 543.75 492.542C530.985 492.542 520.542 482.098 520.542 469.333H497.333C497.333 482.098 486.89 492.542 474.125 492.542C461.36 492.542 450.917 482.098 450.917 469.333H427.708C427.708 482.098 417.265 492.542 404.5 492.542V515.75C418.425 515.75 431.19 509.948 439.312 499.504C447.435 508.788 460.2 515.75 474.125 515.75C488.05 515.75 500.815 509.948 508.938 499.504C517.06 508.788 529.825 515.75 543.75 515.75C557.675 515.75 570.44 509.948 578.562 499.504C586.685 508.788 599.45 515.75 613.375 515.75V492.542C600.61 492.542 590.167 482.098 590.167 469.333Z" fill="#1976D2"/>
<path d="M590.167 399.708H566.958C566.958 412.473 556.515 422.917 543.75 422.917C530.985 422.917 520.542 412.473 520.542 399.708H497.333C497.333 412.473 486.89 422.917 474.125 422.917C461.36 422.917 450.917 412.473 450.917 399.708H427.708C427.708 412.473 417.265 422.917 404.5 422.917V446.125C418.425 446.125 431.19 440.323 439.312 429.879C447.435 439.163 460.2 446.125 474.125 446.125C488.05 446.125 500.815 440.323 508.938 429.879C517.06 439.163 529.825 446.125 543.75 446.125C557.675 446.125 570.44 440.323 578.562 429.879C586.685 439.163 599.45 446.125 613.375 446.125V422.917C600.61 422.917 590.167 412.473 590.167 399.708Z" fill="#1976D2"/>
<path d="M590.167 538.958H566.958C566.958 551.723 556.515 562.167 543.75 562.167C530.985 562.167 520.542 551.723 520.542 538.958H497.333C497.333 551.723 486.89 562.167 474.125 562.167V585.375C488.05 585.375 500.815 579.573 508.938 569.129C517.06 578.413 529.825 585.375 543.75 585.375C557.675 585.375 570.44 579.573 578.562 569.129C586.685 578.413 599.45 585.375 613.375 585.375V562.167C600.61 562.167 590.167 551.723 590.167 538.958Z" fill="#1976D2"/>
<path d="M404.935 206.813L404.963 206.983L404.996 207.152L476.356 572.875H347.375V180.125H372.008C388.28 180.125 402.512 192.277 404.935 206.813Z" fill="#D7D0D6" stroke="black" stroke-width="25"/>
<path d="M404.361 511.209C411.268 511.209 416.861 516.806 416.861 523.709V551.516V565.709C416.861 572.613 411.268 578.209 404.361 578.209C397.455 578.209 391.861 572.613 391.861 565.709V523.709C391.861 519.974 393.499 516.622 396.095 514.331C398.298 512.388 401.192 511.209 404.361 511.209Z" fill="black"/>
<path d="M404.361 613.709C410.713 613.709 415.861 608.561 415.861 602.209C415.861 595.858 410.713 590.709 404.361 590.709C398.01 590.709 392.861 595.858 392.861 602.209C392.861 608.561 398.01 613.709 404.361 613.709Z" fill="black"/>
<path fill-rule="evenodd" clip-rule="evenodd" d="M445.885 492.803C426.861 461.066 380.861 461.066 361.838 492.803L308.049 582.513C288.471 615.173 311.994 656.709 350.072 656.709H457.65C495.729 656.709 519.252 615.173 499.674 582.513L445.885 492.803ZM483.377 592.283L429.588 502.573C419.852 486.333 398.585 483.666 385.062 494.573C382.405 496.716 380.047 499.383 378.135 502.573L324.346 592.283C312.354 612.279 326.76 637.709 350.072 637.709H438.359H457.65C480.963 637.709 495.369 612.279 483.377 592.283Z" fill="black"/>
<path d="M483.377 592.283L429.588 502.573C419.852 486.333 398.585 483.666 385.062 494.573L396.095 514.331C398.298 512.388 401.192 511.209 404.361 511.209C411.268 511.209 416.861 516.806 416.861 523.709V551.516L449.359 609.709C455.985 618.945 454.095 625.064 438.359 637.709H457.65C480.963 637.709 495.369 612.279 483.377 592.283Z" fill="#FFB822"/>
<path fill-rule="evenodd" clip-rule="evenodd" d="M378.135 502.573L324.346 592.283C312.354 612.279 326.76 637.709 350.072 637.709H438.359C454.095 625.064 455.985 618.945 449.359 609.709L416.861 551.516V565.709C416.861 572.613 411.268 578.209 404.361 578.209C397.455 578.209 391.861 572.613 391.861 565.709V523.709C391.861 519.974 393.499 516.622 396.095 514.331L385.062 494.573C382.405 496.716 380.047 499.383 378.135 502.573ZM404.361 613.709C410.713 613.709 415.861 608.561 415.861 602.209C415.861 595.858 410.713 590.709 404.361 590.709C398.01 590.709 392.861 595.858 392.861 602.209C392.861 608.561 398.01 613.709 404.361 613.709Z" fill="#FFC42D"/>
</g>
<defs>
<clipPath id="clip0_286_32">
<rect width="557" height="557" fill="white" transform="translate(126 98)"/>
</clipPath>
</defs>
</svg>
