<svg width="808" height="808" viewBox="0 0 808 808" fill="none" xmlns="http://www.w3.org/2000/svg">
<rect x="16.5" y="16.5" width="775" height="775" rx="387.5" fill="white"/>
<rect x="16.5" y="16.5" width="775" height="775" rx="387.5" stroke="black" stroke-width="33"/>
<path fill-rule="evenodd" clip-rule="evenodd" d="M399.525 277.053C394.69 272.56 387.195 272.6 382.408 277.145L248.659 404.145L248.62 404.182L213.12 438.182C208.134 442.957 207.963 450.87 212.738 455.855C217.513 460.841 225.426 461.012 230.412 456.237L244.766 442.489V468.209C244.766 475.113 250.362 480.709 257.266 480.709C264.169 480.709 269.766 475.113 269.766 468.209V418.577L391.108 303.359L480.266 386.213L514.766 418.273V565.209H447.766V538.709V452.209C447.766 445.306 442.169 439.709 435.266 439.709H346.766C339.862 439.709 334.266 445.306 334.266 452.209V538.209V565.209H269.766V538.209V514.709C269.766 507.806 264.169 502.209 257.266 502.209C250.362 502.209 244.766 507.806 244.766 514.709V577.709C244.766 584.613 250.362 590.209 257.266 590.209H527.266C534.169 590.209 539.766 584.613 539.766 577.709V441.672L555.756 456.366L555.808 456.413C560.881 461.075 568.77 460.753 573.446 455.693C578.122 450.633 577.822 442.743 572.775 438.053L572.723 438.005L399.525 277.053ZM422.766 565.209H359.266V538.209V464.709H422.766V538.209V565.209Z" fill="black"/>
<path d="M269.766 565.209H334.266V538.209H269.766V565.209Z" fill="#D7D0D6"/>
<path d="M514.766 565.209V418.273L480.266 386.213V527.209C480.282 536.582 477.529 538.717 469.766 538.709H447.766V565.209H514.766Z" fill="#D7D0D6"/>
<path d="M269.766 468.209C269.766 475.113 264.169 480.709 257.266 480.709V502.209C264.169 502.209 269.766 507.806 269.766 514.709V538.209H334.266V452.209C334.266 445.306 339.862 439.709 346.766 439.709H435.266C442.169 439.709 447.766 445.306 447.766 452.209V538.709H469.766C477.529 538.717 480.282 536.582 480.266 527.209V386.213L391.108 303.359L269.766 418.577V468.209Z" fill="#E5E1E5"/>
<path d="M422.766 464.709H359.266V538.209H422.766V464.709Z" fill="#FE646F"/>
<path d="M359.266 565.209H422.766V538.209H359.266V565.209Z" fill="#FD4755"/>
<path d="M525.268 260.209C532.174 260.209 537.768 265.806 537.768 272.709V300.516V314.709C537.768 321.613 532.174 327.209 525.268 327.209C518.361 327.209 512.768 321.613 512.768 314.709V272.709C512.768 268.974 514.405 265.622 517.002 263.331C519.205 261.388 522.098 260.209 525.268 260.209Z" fill="black"/>
<path d="M525.268 362.709C531.619 362.709 536.768 357.561 536.768 351.209C536.768 344.858 531.619 339.709 525.268 339.709C518.916 339.709 513.768 344.858 513.768 351.209C513.768 357.561 518.916 362.709 525.268 362.709Z" fill="black"/>
<path fill-rule="evenodd" clip-rule="evenodd" d="M566.791 241.803C547.768 210.066 501.768 210.066 482.744 241.803L428.955 331.513C409.377 364.173 432.9 405.709 470.979 405.709H578.557C616.635 405.709 640.158 364.173 620.58 331.513L566.791 241.803ZM604.283 341.283L550.494 251.573C540.758 235.333 519.491 232.666 505.968 243.573C503.311 245.716 500.954 248.383 499.041 251.573L445.252 341.283C433.26 361.279 447.666 386.709 470.979 386.709H559.266H578.557C601.869 386.709 616.275 361.279 604.283 341.283Z" fill="black"/>
<path d="M604.283 341.283L550.494 251.573C540.758 235.333 519.491 232.666 505.968 243.573L517.002 263.331C519.205 261.388 522.098 260.209 525.268 260.209C532.174 260.209 537.768 265.806 537.768 272.709V300.516L570.266 358.709C576.891 367.945 575.001 374.064 559.266 386.709H578.557C601.869 386.709 616.275 361.279 604.283 341.283Z" fill="#FFC344"/>
<path fill-rule="evenodd" clip-rule="evenodd" d="M499.041 251.573L445.252 341.283C433.26 361.279 447.666 386.709 470.979 386.709H559.266C575.001 374.064 576.891 367.945 570.266 358.709L537.768 300.516V314.709C537.768 321.613 532.174 327.209 525.268 327.209C518.361 327.209 512.768 321.613 512.768 314.709V272.709C512.768 268.974 514.405 265.622 517.002 263.331L505.968 243.573C503.311 245.716 500.954 248.383 499.041 251.573ZM525.268 362.709C531.619 362.709 536.768 357.561 536.768 351.209C536.768 344.858 531.619 339.709 525.268 339.709C518.916 339.709 513.768 344.858 513.768 351.209C513.768 357.561 518.916 362.709 525.268 362.709Z" fill="#FFD15B"/>
<path d="M140.447 439.7C135.566 444.581 135.566 452.496 140.447 457.377L152.468 469.398L137.972 483.894C133.091 488.775 133.091 496.69 137.972 501.571L154.589 518.188L141.154 531.624C136.273 536.505 136.273 544.42 141.154 549.301L165.903 574.05C170.785 578.931 178.699 578.931 183.581 574.05C188.462 569.168 188.462 561.254 183.581 556.372L167.671 540.462L181.106 527.027C185.987 522.146 185.987 514.231 181.106 509.35L164.489 492.733L178.985 478.237C183.866 473.355 183.866 465.441 178.985 460.559L166.964 448.538L183.227 432.275C188.109 427.393 188.109 419.479 183.227 414.597C178.346 409.716 170.431 409.716 165.55 414.597L140.447 439.7Z" fill="black"/>
<path d="M667.686 548.189C672.567 543.308 672.567 535.393 667.686 530.512L655.665 518.491L670.16 503.995C675.042 499.113 675.042 491.199 670.16 486.317L653.543 469.7L666.978 456.265C671.86 451.384 671.86 443.469 666.978 438.588L642.23 413.839C637.348 408.957 629.434 408.957 624.552 413.839C619.671 418.72 619.671 426.635 624.552 431.517L640.462 447.426L627.027 460.861C622.145 465.743 622.145 473.658 627.027 478.539L643.644 495.156L629.148 509.652C624.267 514.533 624.267 522.448 629.148 527.33L641.169 539.35L624.906 555.614C620.024 560.495 620.024 568.41 624.906 573.291C629.787 578.173 637.702 578.173 642.583 573.291L667.686 548.189Z" fill="black"/>
</svg>
