<svg width="808" height="808" viewBox="0 0 808 808" fill="none" xmlns="http://www.w3.org/2000/svg">
<rect x="16.5" y="16.5" width="775" height="775" rx="387.5" fill="white"/>
<rect x="16.5" y="16.5" width="775" height="775" rx="387.5" stroke="black" stroke-width="33"/>
<g clip-path="url(#clip0_279_156)">
<path d="M557.984 561.032H627.298V499.419H557.984V561.032Z" fill="#E5E1E5"/>
<path d="M604.195 561.032H627.3V499.419H604.195V561.032Z" fill="#D7D0D6"/>
<path d="M537.964 591.838H363.138C351.586 591.838 342.344 582.596 342.344 571.814V489.407C342.344 477.855 351.586 468.613 363.138 468.613H537.963C549.515 468.613 558.757 477.855 558.757 489.407V571.814C557.988 582.595 548.746 591.838 537.964 591.838Z" fill="#E5E1E5"/>
<path d="M542.588 329.985C542.588 380.815 500.999 422.403 450.169 422.403C399.34 422.403 357.75 380.814 357.75 329.985C357.75 279.155 399.339 237.565 450.169 237.565C500.998 237.565 542.588 279.154 542.588 329.985Z" fill="white"/>
<path d="M450.162 237.565C446.311 237.565 442.46 237.565 438.609 238.335C484.048 243.726 519.476 283.004 519.476 329.984C519.476 376.963 484.048 416.242 438.609 421.632C442.46 422.402 446.311 422.402 450.162 422.402C500.992 422.402 542.58 380.813 542.58 329.984C542.58 279.154 500.992 237.565 450.162 237.565Z" fill="#D7D0D6"/>
<path d="M450.158 422.403C439.376 422.403 429.364 420.093 419.352 417.013V468.613H480.965V417.013C471.723 420.093 460.94 422.403 450.158 422.403Z" fill="#E5E1E5"/>
<path d="M450.159 422.403C469.414 422.403 487.897 416.242 502.53 406.23C491.747 388.516 472.494 376.194 450.159 376.194C427.825 376.194 408.571 387.747 397.789 406.23C412.422 416.242 430.906 422.403 450.159 422.403Z" fill="#D7D0D6"/>
<path d="M373.148 541.007V520.213C373.148 508.661 382.39 499.419 393.173 499.419H506.386C517.938 499.419 526.41 508.661 526.41 520.213V541.007C526.41 552.56 517.168 561.801 506.386 561.801H393.942C382.39 561.031 373.148 551.79 373.148 541.007Z" fill="#846E54"/>
<path d="M507.151 499.419H484.047C495.599 499.419 504.841 508.66 504.841 520.212V541.006C504.841 552.559 495.599 561.031 484.047 561.031H507.151C518.703 561.031 527.945 551.789 527.945 541.006V520.212C527.175 508.66 517.934 499.419 507.151 499.419Z" fill="#715330"/>
<path d="M273.027 222.162V431.645C273.027 470.153 303.834 500.959 342.341 500.959V561.032C269.947 561.032 211.414 504.04 211.414 431.645V222.162H273.027Z" fill="#E5E1E5"/>
<path d="M234.518 388.516C222.195 400.839 201.401 400.839 189.079 388.516C178.297 375.424 178.297 356.94 189.079 339.226L211.414 306.88L234.518 339.226C249.151 362.331 241.449 380.814 234.518 388.516Z" fill="#846E54"/>
<path d="M537.963 599.539H363.137C347.733 599.539 334.641 587.217 334.641 571.043V489.407C334.641 474.004 346.964 461.682 363.137 461.682H537.962C553.365 461.682 565.687 474.005 565.687 489.407V571.814C565.688 587.217 553.366 599.539 537.963 599.539ZM363.137 476.314C356.205 476.314 350.044 481.705 350.044 488.637V571.044C350.044 577.975 355.435 584.137 363.137 584.137H537.962C544.893 584.137 550.284 578.746 550.284 571.044V489.408C550.284 482.477 544.893 477.086 537.962 477.086H363.137V476.314Z" fill="black"/>
<path d="M507.157 568.733H393.944C378.541 568.733 366.219 556.41 366.219 541.007V520.213C366.219 504.81 378.542 491.717 393.944 491.717H507.157C522.561 491.717 535.654 504.04 535.654 520.213V541.007C534.883 556.411 522.561 568.733 507.157 568.733ZM393.944 507.121C387.013 507.121 381.621 512.511 381.621 520.213V541.007C381.621 547.939 387.012 553.329 393.944 553.329H507.157C514.089 553.329 520.25 547.939 520.25 541.007V520.213C520.25 513.282 514.86 507.121 507.157 507.121H393.944Z" fill="black"/>
<path d="M627.297 568.733H557.982C553.362 568.733 550.281 565.652 550.281 561.031V499.419C550.281 494.798 553.362 491.717 557.982 491.717H627.297C631.917 491.717 634.998 494.798 634.998 499.419V561.031C634.998 565.652 631.917 568.733 627.297 568.733ZM565.684 553.329H619.594V507.12H565.684V553.329Z" fill="black"/>
<path d="M405.492 537.927H374.686C370.065 537.927 366.984 534.847 366.984 530.226C366.984 525.605 370.065 522.525 374.686 522.525H405.492C410.113 522.525 413.193 525.605 413.193 530.226C413.194 534.846 410.113 537.927 405.492 537.927Z" fill="black"/>
<path d="M527.18 537.927H496.373C491.752 537.927 488.672 534.847 488.672 530.226C488.672 525.605 491.752 522.525 496.373 522.525H527.18C531.8 522.525 534.881 525.605 534.881 530.226C534.881 534.846 531.8 537.927 527.18 537.927Z" fill="black"/>
<path d="M450.16 430.104C394.708 430.104 350.039 385.435 350.039 329.984C350.039 274.532 394.709 229.864 450.16 229.864C505.61 229.864 550.28 274.533 550.28 329.985C550.28 385.436 505.611 430.104 450.16 430.104ZM450.16 245.267C403.95 245.267 365.442 283.005 365.442 329.985C365.442 376.964 403.18 414.702 450.16 414.702C497.139 414.702 534.877 376.964 534.877 329.985C534.877 283.005 497.139 245.267 450.16 245.267Z" fill="black"/>
<path d="M480.97 476.314H419.357C414.737 476.314 411.656 473.234 411.656 468.613V417.013C411.656 414.702 413.197 412.392 414.737 410.851C417.047 409.31 419.357 409.31 421.668 410.081C440.151 417.013 459.406 417.013 477.889 410.081C480.2 409.311 482.51 409.311 484.821 410.851C487.131 412.392 487.901 414.702 487.901 417.013V468.613C488.672 473.234 485.591 476.314 480.97 476.314ZM427.06 460.911H473.269V427.024C457.866 430.875 442.463 430.875 427.06 427.024V460.911Z" fill="black"/>
<path d="M450.164 430.104C429.37 430.104 410.116 423.943 393.173 412.391C390.093 410.08 388.552 405.459 390.862 402.379C403.955 380.814 426.29 368.492 450.164 368.492C474.039 368.492 496.374 380.815 509.467 401.609C511.777 405.46 511.007 409.31 507.156 411.621C490.212 423.944 470.959 430.104 450.164 430.104ZM408.576 403.92C433.991 418.553 466.338 418.553 491.753 403.92C481.741 390.827 466.338 383.896 450.164 383.896C433.991 383.896 418.588 390.827 408.576 403.92Z" fill="black"/>
<path d="M396.254 329.985C396.254 334.606 393.174 337.686 388.553 337.686C383.932 337.686 380.852 334.606 380.852 329.985C380.852 325.364 383.932 322.284 388.553 322.284C393.174 322.284 396.254 326.134 396.254 329.985Z" fill="black"/>
<path d="M519.473 329.985C519.473 334.606 516.392 337.686 511.771 337.686C507.151 337.686 504.07 334.606 504.07 329.985C504.07 325.364 507.151 322.284 511.771 322.284C516.392 322.284 519.473 326.134 519.473 329.985Z" fill="black"/>
<path d="M411.652 291.476C411.652 296.097 408.572 299.177 403.951 299.177C399.33 299.177 396.25 296.097 396.25 291.476C396.25 286.855 399.33 283.775 403.951 283.775C408.572 283.775 411.652 287.626 411.652 291.476Z" fill="black"/>
<path d="M457.863 268.372C457.863 272.993 454.783 276.073 450.162 276.073C445.541 276.073 442.461 272.993 442.461 268.372C442.461 263.751 445.541 260.671 450.162 260.671C454.782 260.671 457.863 264.521 457.863 268.372Z" fill="black"/>
<path d="M504.074 291.476C504.074 296.097 500.994 299.177 496.373 299.177C491.752 299.177 488.672 296.097 488.672 291.476C488.672 286.855 491.752 283.775 496.373 283.775C500.994 283.775 504.074 287.626 504.074 291.476Z" fill="black"/>
<path d="M450.16 353.089C447.849 353.089 445.539 352.319 443.998 350.009L417.813 319.202C414.732 316.122 415.502 310.73 418.582 308.42C421.663 305.34 427.054 306.11 429.365 309.19L455.55 339.996C458.631 343.077 457.861 348.468 454.781 350.779C454.011 352.319 451.7 353.089 450.16 353.089Z" fill="black"/>
<path d="M234.517 283.775H211.412C207.561 283.775 203.711 280.695 203.711 276.074C203.711 271.453 206.791 268.373 211.412 268.373H234.517C239.137 268.373 242.218 271.453 242.218 276.074C242.218 280.695 239.137 283.775 234.517 283.775Z" fill="black"/>
<path d="M249.925 260.671H234.521C230.67 260.671 226.82 257.59 226.82 252.969C226.82 248.349 229.901 245.268 234.521 245.268H249.925C254.546 245.268 257.626 248.349 257.626 252.969C257.626 257.59 254.546 260.671 249.925 260.671Z" fill="black"/>
<path d="M234.521 283.775C230.67 283.775 226.82 280.695 226.82 276.074V252.969C226.82 248.349 229.901 245.268 234.521 245.268C239.142 245.268 242.223 248.349 242.223 252.969V276.074C242.223 280.695 239.142 283.775 234.521 283.775Z" fill="#777777"/>
<path d="M211.414 405.459C200.632 405.459 190.62 401.608 183.689 393.907C183.689 393.907 183.689 393.907 182.919 393.137C169.825 376.964 169.825 355.4 182.148 334.606L205.252 302.259C206.793 300.719 209.104 299.179 211.414 299.179C213.724 299.179 216.035 300.72 217.575 302.259L239.91 334.606C257.624 363.102 247.611 385.436 239.14 393.908C232.208 400.839 222.195 405.459 211.414 405.459ZM194.47 383.125C203.712 391.597 219.885 391.597 228.357 382.355C233.748 376.964 239.909 362.331 227.587 342.307L211.414 319.202L195.241 342.307C186.769 357.71 185.998 372.343 194.47 383.125Z" fill="black"/>
<path d="M342.339 568.733C266.094 568.733 203.711 507.12 203.711 431.645V396.988C203.711 392.368 206.791 389.287 211.412 389.287C217.574 389.287 223.735 386.977 228.356 382.356C233.747 376.965 239.908 362.332 227.586 342.308L205.252 310.73C204.482 309.961 203.711 308.42 203.711 306.879V222.162C203.711 217.541 206.791 214.461 211.412 214.461H273.025C277.646 214.461 280.726 217.541 280.726 222.162V431.645C280.726 465.532 308.452 493.258 342.339 493.258C346.96 493.258 350.04 496.338 350.04 500.959V561.032C350.041 565.652 346.96 568.733 342.339 568.733ZM219.114 404.69V432.415C219.114 497.108 269.945 549.478 334.638 553.329V508.66C296.13 504.809 265.324 471.692 265.324 431.645V229.864H219.114V304.569L240.679 334.605C258.393 363.101 248.38 385.435 239.909 393.907C233.748 399.299 226.816 403.149 219.114 404.69Z" fill="black"/>
</g>
<defs>
<clipPath id="clip0_279_156">
<rect width="462" height="462" fill="white" transform="translate(173 176)"/>
</clipPath>
</defs>
</svg>
