<svg width="808" height="808" viewBox="0 0 808 808" fill="none" xmlns="http://www.w3.org/2000/svg">
<rect x="16.5" y="16.5" width="775" height="775" rx="387.5" fill="white"/>
<rect x="16.5" y="16.5" width="775" height="775" rx="387.5" stroke="black" stroke-width="33"/>
<path d="M163 561H645L480.682 342.136H443.755V400.905C443.89 431.881 412.829 431.906 412.519 401.311V342.136H380.472V377.398C380.472 389.557 361.811 389.557 361.811 377.398V342.136H327.318L163 561Z" fill="#777777"/>
<path d="M404 240L341.924 322.682L327.318 342.136H361.811V377.398C361.811 389.557 380.472 389.557 380.472 377.398V342.136H412.519V401.311C412.829 431.906 443.89 431.881 443.755 400.905V342.136H480.682L466.076 322.682L404 240Z" fill="#FD8300"/>
<path d="M186 537C161.147 537 141 557.147 141 582V630C141 654.853 161.147 675 186 675H610.628V537H186Z" fill="#A2E62E"/>
<path d="M623 675C647.853 675 668 654.853 668 630V582C668 557.147 647.853 537 623 537H610.628V675H623Z" fill="#83BA24"/>
<path d="M357 273.5V300H398V273.5H357Z" fill="#FFEDC6"/>
<path d="M451 156H357V247V273.5H398V300H451V156Z" fill="#FFD686"/>
<path d="M536 247C554.778 247 570 231.778 570 213C570 194.222 554.778 179 536 179H492.5C534.5 179 535.5 247 492.5 247H536Z" fill="#FFD686"/>
<path d="M272 179C253.222 179 238 194.222 238 213C238 231.778 253.222 247 272 247H492.5C535.5 247 534.5 179 492.5 179H272Z" fill="#FFEDC6"/>
<path d="M615 213C633.778 213 649 197.778 649 179C649 160.222 633.778 145 615 145H570.381C632.243 145 633.716 213 570.381 213H615Z" fill="#FFD686"/>
<path d="M194 145C175.222 145 160 160.222 160 179C160 197.778 175.222 213 194 213H570.381C633.716 213 632.243 145 570.381 145H194Z" fill="#FFEDC6"/>
</svg>
