<svg width="808" height="808" viewBox="0 0 808 808" fill="none" xmlns="http://www.w3.org/2000/svg">
<rect x="16.5" y="16.5" width="775" height="775" rx="387.5" fill="white"/>
<rect x="16.5" y="16.5" width="775" height="775" rx="387.5" stroke="black" stroke-width="33"/>
<g clip-path="url(#clip0_276_4)">
<path d="M447.665 542.019H361.342C353.08 542.019 346.051 547.445 343.83 554.967C343.091 556.693 342.844 558.542 342.844 560.516V671.502C342.844 681.738 351.106 689.999 361.341 689.999H447.663C457.899 689.999 466.161 681.736 466.161 671.502V560.516C466.163 550.281 457.9 542.019 447.665 542.019Z" fill="#777777"/>
<path d="M204.394 579.014C155.257 579.014 132.666 527.968 156.151 492.739L356.94 149.918C366.901 133.515 385.388 122.393 404.497 123.025C423.606 122.393 442.094 133.516 452.053 149.917L652.843 492.738C676.328 527.966 653.736 579.013 604.599 579.013H204.394V579.014Z" fill="#FD4755"/>
<path d="M604.601 579.014C653.739 579.014 676.329 527.966 652.845 492.739L452.056 149.918C442.097 133.516 423.607 122.392 404.5 123.027V579.014H604.601Z" fill="#FD4755"/>
<path d="M606.618 542.019H202.381C188.076 542.019 178.21 526.357 187.46 512.299L388.714 168.858C392.289 162.939 398.456 159.979 404.499 159.979C410.541 159.979 416.707 162.94 420.284 168.734L483.544 276.761L502.289 308.824L561.481 409.945L622.031 513.285C630.294 525.494 621.538 542.019 606.618 542.019Z" fill="#99DDFF"/>
<path d="M606.62 542.019H363.312L404.502 514.519L561.486 409.945L622.035 513.285C630.296 525.494 621.54 542.019 606.62 542.019Z" fill="#E6F3FF"/>
<path d="M496.982 406.372C507.197 406.372 515.479 398.09 515.479 387.874C515.479 377.658 507.197 369.377 496.982 369.377C486.766 369.377 478.484 377.658 478.484 387.874C478.484 398.09 486.766 406.372 496.982 406.372Z" fill="#E6F3FF"/>
<path d="M287.341 505.026C297.557 505.026 305.838 496.745 305.838 486.529C305.838 476.313 297.557 468.032 287.341 468.032C277.125 468.032 268.844 476.313 268.844 486.529C268.844 496.745 277.125 505.026 287.341 505.026Z" fill="#E6F3FF"/>
<path d="M382.919 474.158C375.02 474.158 367.13 471.148 361.122 465.138L322.006 426.023C309.987 414.004 309.987 394.447 322.006 382.427L354.955 349.478C366.974 337.459 386.531 337.459 398.551 349.478L437.667 388.593C449.685 400.612 449.685 420.169 437.667 432.189L404.717 465.138C398.706 471.146 390.819 474.158 382.919 474.158Z" fill="#E6F3FF"/>
</g>
<defs>
<clipPath id="clip0_276_4">
<rect width="567" height="567" fill="white" transform="translate(121 123)"/>
</clipPath>
</defs>
</svg>
