<svg width="808" height="808" viewBox="0 0 808 808" fill="none" xmlns="http://www.w3.org/2000/svg">
<rect x="16.5" y="16.5" width="775" height="775" rx="387.5" fill="white"/>
<rect x="16.5" y="16.5" width="775" height="775" rx="387.5" stroke="black" stroke-width="33"/>
<g clip-path="url(#clip0_276_4)">
<path d="M447.665 539.019H361.342C353.08 539.019 346.051 544.445 343.83 551.967C343.091 553.693 342.844 555.542 342.844 557.516V668.502C342.844 678.738 351.106 686.999 361.341 686.999H447.663C457.899 686.999 466.161 678.736 466.161 668.502V557.516C466.163 547.281 457.9 539.019 447.665 539.019Z" fill="#777777"/>
<path d="M204.394 576.014C155.257 576.014 132.666 524.968 156.151 489.739L356.94 146.918C366.901 130.515 385.388 119.393 404.497 120.025C423.606 119.393 442.094 130.516 452.053 146.917L652.843 489.738C676.328 524.966 653.736 576.013 604.599 576.013H204.394V576.014Z" fill="#FD4755"/>
<path d="M604.601 576.014C653.739 576.014 676.329 524.966 652.845 489.739L452.056 146.918C442.097 130.516 423.607 119.392 404.5 120.027V576.014H604.601Z" fill="#FD4755"/>
<path d="M606.618 539.019H202.381C188.076 539.019 178.21 523.357 187.46 509.299L388.714 165.858C392.289 159.939 398.456 156.979 404.499 156.979C410.541 156.979 416.707 159.94 420.284 165.734L483.544 273.761L502.289 305.824L561.481 406.945L622.031 510.285C630.294 522.494 621.538 539.019 606.618 539.019Z" fill="#99DDFF"/>
<path d="M606.62 539.019H363.312L404.502 511.519L561.486 406.945L622.035 510.285C630.296 522.494 621.54 539.019 606.62 539.019Z" fill="#E6F3FF"/>
<path d="M496.982 403.372C507.197 403.372 515.479 395.09 515.479 384.874C515.479 374.658 507.197 366.377 496.982 366.377C486.766 366.377 478.484 374.658 478.484 384.874C478.484 395.09 486.766 403.372 496.982 403.372Z" fill="#E6F3FF"/>
<path d="M287.341 502.026C297.557 502.026 305.838 493.745 305.838 483.529C305.838 473.313 297.557 465.032 287.341 465.032C277.125 465.032 268.844 473.313 268.844 483.529C268.844 493.745 277.125 502.026 287.341 502.026Z" fill="#E6F3FF"/>
<path d="M382.919 471.158C375.02 471.158 367.13 468.148 361.122 462.138L322.006 423.023C309.987 411.004 309.987 391.447 322.006 379.427L354.955 346.478C366.974 334.459 386.531 334.459 398.551 346.478L437.667 385.593C449.685 397.612 449.685 417.169 437.667 429.189L404.717 462.138C398.706 468.146 390.819 471.158 382.919 471.158Z" fill="#E6F3FF"/>
</g>
<defs>
<clipPath id="clip0_276_4">
<rect width="567" height="567" fill="white" transform="translate(121 120)"/>
</clipPath>
</defs>
</svg>
