<svg width="808" height="808" viewBox="0 0 808 808" fill="none" xmlns="http://www.w3.org/2000/svg">
<rect x="16.5" y="16.5" width="775" height="775" rx="387.5" fill="white"/>
<rect x="16.5" y="16.5" width="775" height="775" rx="387.5" stroke="black" stroke-width="33"/>
<g clip-path="url(#clip0_279_156)">
<path d="M557.984 558.032H627.298V496.419H557.984V558.032Z" fill="#E5E1E5"/>
<path d="M604.195 558.032H627.3V496.419H604.195V558.032Z" fill="#D7D0D6"/>
<path d="M537.964 588.838H363.138C351.586 588.838 342.344 579.596 342.344 568.814V486.407C342.344 474.855 351.586 465.613 363.138 465.613H537.963C549.515 465.613 558.757 474.855 558.757 486.407V568.814C557.988 579.595 548.746 588.838 537.964 588.838Z" fill="#E5E1E5"/>
<path d="M542.588 326.985C542.588 377.815 500.999 419.403 450.169 419.403C399.34 419.403 357.75 377.814 357.75 326.985C357.75 276.155 399.339 234.565 450.169 234.565C500.998 234.565 542.588 276.154 542.588 326.985Z" fill="white"/>
<path d="M450.162 234.565C446.311 234.565 442.46 234.565 438.609 235.335C484.048 240.726 519.476 280.004 519.476 326.984C519.476 373.963 484.048 413.242 438.609 418.632C442.46 419.402 446.311 419.402 450.162 419.402C500.992 419.402 542.58 377.813 542.58 326.984C542.58 276.154 500.992 234.565 450.162 234.565Z" fill="#D7D0D6"/>
<path d="M450.158 419.403C439.376 419.403 429.364 417.093 419.352 414.013V465.613H480.965V414.013C471.723 417.093 460.94 419.403 450.158 419.403Z" fill="#E5E1E5"/>
<path d="M450.159 419.403C469.414 419.403 487.897 413.242 502.53 403.23C491.747 385.516 472.494 373.194 450.159 373.194C427.825 373.194 408.571 384.747 397.789 403.23C412.422 413.242 430.906 419.403 450.159 419.403Z" fill="#D7D0D6"/>
<path d="M373.148 538.007V517.213C373.148 505.661 382.39 496.419 393.173 496.419H506.386C517.938 496.419 526.41 505.661 526.41 517.213V538.007C526.41 549.56 517.168 558.801 506.386 558.801H393.942C382.39 558.031 373.148 548.79 373.148 538.007Z" fill="#846E54"/>
<path d="M507.151 496.419H484.047C495.599 496.419 504.841 505.66 504.841 517.213V538.006C504.841 549.559 495.599 558.031 484.047 558.031H507.151C518.703 558.031 527.945 548.789 527.945 538.006V517.213C527.175 505.66 517.934 496.419 507.151 496.419Z" fill="#715330"/>
<path d="M273.027 219.162V428.645C273.027 467.153 303.834 497.959 342.341 497.959V558.032C269.947 558.032 211.414 501.04 211.414 428.645V219.162H273.027Z" fill="#E5E1E5"/>
<path d="M234.518 385.516C222.195 397.839 201.401 397.839 189.079 385.516C178.297 372.424 178.297 353.94 189.079 336.226L211.414 303.88L234.518 336.226C249.151 359.331 241.449 377.814 234.518 385.516Z" fill="#846E54"/>
<path d="M537.963 596.539H363.137C347.733 596.539 334.641 584.217 334.641 568.043V486.407C334.641 471.004 346.964 458.682 363.137 458.682H537.962C553.365 458.682 565.687 471.005 565.687 486.407V568.814C565.688 584.217 553.366 596.539 537.963 596.539ZM363.137 473.314C356.205 473.314 350.044 478.705 350.044 485.637V568.044C350.044 574.975 355.435 581.137 363.137 581.137H537.962C544.893 581.137 550.284 575.746 550.284 568.044V486.408C550.284 479.477 544.893 474.086 537.962 474.086H363.137V473.314Z" fill="black"/>
<path d="M507.157 565.733H393.944C378.541 565.733 366.219 553.41 366.219 538.007V517.213C366.219 501.81 378.542 488.717 393.944 488.717H507.157C522.561 488.717 535.654 501.04 535.654 517.213V538.007C534.883 553.411 522.561 565.733 507.157 565.733ZM393.944 504.121C387.013 504.121 381.621 509.511 381.621 517.213V538.007C381.621 544.939 387.012 550.329 393.944 550.329H507.157C514.089 550.329 520.25 544.939 520.25 538.007V517.213C520.25 510.282 514.86 504.121 507.157 504.121H393.944Z" fill="black"/>
<path d="M627.297 565.733H557.982C553.362 565.733 550.281 562.652 550.281 558.031V496.419C550.281 491.798 553.362 488.717 557.982 488.717H627.297C631.917 488.717 634.998 491.798 634.998 496.419V558.031C634.998 562.652 631.917 565.733 627.297 565.733ZM565.684 550.329H619.594V504.12H565.684V550.329Z" fill="black"/>
<path d="M405.492 534.927H374.686C370.065 534.927 366.984 531.847 366.984 527.226C366.984 522.605 370.065 519.525 374.686 519.525H405.492C410.113 519.525 413.193 522.605 413.193 527.226C413.194 531.846 410.113 534.927 405.492 534.927Z" fill="black"/>
<path d="M527.18 534.927H496.373C491.752 534.927 488.672 531.847 488.672 527.226C488.672 522.605 491.752 519.525 496.373 519.525H527.18C531.8 519.525 534.881 522.605 534.881 527.226C534.881 531.846 531.8 534.927 527.18 534.927Z" fill="black"/>
<path d="M450.16 427.104C394.708 427.104 350.039 382.435 350.039 326.984C350.039 271.532 394.709 226.864 450.16 226.864C505.61 226.864 550.28 271.533 550.28 326.985C550.28 382.436 505.611 427.104 450.16 427.104ZM450.16 242.267C403.95 242.267 365.442 280.005 365.442 326.985C365.442 373.964 403.18 411.702 450.16 411.702C497.139 411.702 534.877 373.964 534.877 326.985C534.877 280.005 497.139 242.267 450.16 242.267Z" fill="black"/>
<path d="M480.97 473.314H419.357C414.737 473.314 411.656 470.234 411.656 465.613V414.013C411.656 411.702 413.197 409.392 414.737 407.851C417.047 406.31 419.357 406.31 421.668 407.081C440.151 414.013 459.406 414.013 477.889 407.081C480.2 406.311 482.51 406.311 484.82 407.851C487.131 409.392 487.901 411.702 487.901 414.013V465.613C488.672 470.234 485.591 473.314 480.97 473.314ZM427.06 457.911H473.269V424.024C457.866 427.875 442.463 427.875 427.06 424.024V457.911Z" fill="black"/>
<path d="M450.164 427.104C429.37 427.104 410.116 420.943 393.173 409.391C390.093 407.08 388.552 402.459 390.862 399.379C403.955 377.814 426.29 365.492 450.164 365.492C474.039 365.492 496.374 377.815 509.467 398.609C511.777 402.46 511.007 406.31 507.156 408.621C490.212 420.944 470.959 427.104 450.164 427.104ZM408.576 400.92C433.991 415.553 466.338 415.553 491.753 400.92C481.741 387.827 466.338 380.896 450.164 380.896C433.991 380.896 418.588 387.827 408.576 400.92Z" fill="black"/>
<path d="M396.254 326.985C396.254 331.606 393.174 334.686 388.553 334.686C383.932 334.686 380.852 331.606 380.852 326.985C380.852 322.364 383.932 319.284 388.553 319.284C393.174 319.284 396.254 323.134 396.254 326.985Z" fill="black"/>
<path d="M519.473 326.985C519.473 331.606 516.392 334.686 511.771 334.686C507.151 334.686 504.07 331.606 504.07 326.985C504.07 322.364 507.151 319.284 511.771 319.284C516.392 319.284 519.473 323.134 519.473 326.985Z" fill="black"/>
<path d="M411.652 288.476C411.652 293.097 408.572 296.177 403.951 296.177C399.33 296.177 396.25 293.097 396.25 288.476C396.25 283.855 399.33 280.775 403.951 280.775C408.572 280.775 411.652 284.626 411.652 288.476Z" fill="black"/>
<path d="M457.863 265.372C457.863 269.993 454.783 273.073 450.162 273.073C445.541 273.073 442.461 269.993 442.461 265.372C442.461 260.751 445.541 257.671 450.162 257.671C454.782 257.671 457.863 261.521 457.863 265.372Z" fill="black"/>
<path d="M504.074 288.476C504.074 293.097 500.994 296.177 496.373 296.177C491.752 296.177 488.672 293.097 488.672 288.476C488.672 283.855 491.752 280.775 496.373 280.775C500.994 280.775 504.074 284.626 504.074 288.476Z" fill="black"/>
<path d="M450.16 350.089C447.849 350.089 445.539 349.319 443.998 347.009L417.813 316.202C414.732 313.122 415.502 307.73 418.582 305.42C421.663 302.34 427.054 303.11 429.365 306.19L455.55 336.996C458.631 340.077 457.861 345.468 454.781 347.779C454.011 349.319 451.7 350.089 450.16 350.089Z" fill="black"/>
<path d="M234.517 280.775H211.412C207.561 280.775 203.711 277.695 203.711 273.074C203.711 268.453 206.791 265.373 211.412 265.373H234.517C239.137 265.373 242.218 268.453 242.218 273.074C242.218 277.695 239.137 280.775 234.517 280.775Z" fill="black"/>
<path d="M249.925 257.671H234.521C230.67 257.671 226.82 254.59 226.82 249.969C226.82 245.349 229.901 242.268 234.521 242.268H249.925C254.546 242.268 257.626 245.349 257.626 249.969C257.626 254.59 254.546 257.671 249.925 257.671Z" fill="black"/>
<path d="M234.521 280.775C230.67 280.775 226.82 277.695 226.82 273.074V249.969C226.82 245.349 229.901 242.268 234.521 242.268C239.142 242.268 242.223 245.349 242.223 249.969V273.074C242.223 277.695 239.142 280.775 234.521 280.775Z" fill="#777777"/>
<path d="M211.414 402.459C200.632 402.459 190.62 398.608 183.689 390.907C183.689 390.907 183.689 390.907 182.919 390.137C169.825 373.964 169.825 352.4 182.148 331.606L205.252 299.259C206.793 297.719 209.104 296.179 211.414 296.179C213.724 296.179 216.035 297.72 217.575 299.259L239.91 331.606C257.624 360.102 247.611 382.436 239.14 390.908C232.208 397.839 222.195 402.459 211.414 402.459ZM194.47 380.125C203.712 388.597 219.885 388.597 228.357 379.355C233.748 373.964 239.909 359.331 227.587 339.307L211.414 316.202L195.241 339.307C186.769 354.71 185.998 369.343 194.47 380.125Z" fill="black"/>
<path d="M342.339 565.733C266.094 565.733 203.711 504.12 203.711 428.645V393.988C203.711 389.368 206.791 386.287 211.412 386.287C217.574 386.287 223.735 383.977 228.356 379.356C233.747 373.965 239.908 359.332 227.586 339.308L205.252 307.73C204.482 306.961 203.711 305.42 203.711 303.879V219.162C203.711 214.541 206.791 211.461 211.412 211.461H273.025C277.646 211.461 280.726 214.541 280.726 219.162V428.645C280.726 462.532 308.452 490.258 342.339 490.258C346.96 490.258 350.04 493.338 350.04 497.959V558.032C350.041 562.652 346.96 565.733 342.339 565.733ZM219.114 401.69V429.415C219.114 494.108 269.945 546.478 334.638 550.329V505.66C296.13 501.809 265.324 468.692 265.324 428.645V226.864H219.114V301.569L240.679 331.605C258.393 360.101 248.38 382.435 239.909 390.907C233.748 396.299 226.816 400.149 219.114 401.69Z" fill="black"/>
</g>
<defs>
<clipPath id="clip0_279_156">
<rect width="462" height="462" fill="white" transform="translate(173 173)"/>
</clipPath>
</defs>
</svg>
