<svg width="808" height="808" viewBox="0 0 808 808" fill="none" xmlns="http://www.w3.org/2000/svg">
<rect x="16.5" y="16.5" width="775" height="775" rx="387.5" fill="white"/>
<rect x="16.5" y="16.5" width="775" height="775" rx="387.5" stroke="black" stroke-width="33"/>
<path d="M408.408 645.989H355.45C348.142 645.989 342.211 638.997 342.211 630.369V526.236C342.211 517.607 348.142 510.616 355.45 510.616H408.408C415.717 510.616 421.648 517.607 421.648 526.236V630.369C421.648 638.997 415.717 645.989 408.408 645.989Z" fill="#AC7551"/>
<path d="M408.409 510.616H381.93V645.989H408.409C415.717 645.989 421.648 638.997 421.648 630.369V526.236C421.648 517.606 415.717 510.616 408.409 510.616Z" fill="#845A3C"/>
<path d="M521.69 440.189H495.494L439.399 541.901H214.221C202.49 541.901 196.582 526.208 204.871 517.102L274.904 440.188H246.15C234.419 440.188 228.51 424.495 236.802 415.389L306.832 338.475H278.079C266.347 338.475 260.439 322.782 268.728 313.676L374.57 197.435C376.686 195.111 379.156 193.851 381.803 193.463C385.86 192.591 390.182 193.948 393.269 197.435L499.11 313.678C507.4 322.784 501.58 338.477 489.76 338.477H461.006L531.036 415.391C539.418 424.496 533.509 440.189 521.69 440.189Z" fill="#A2E62E"/>
<path d="M521.722 440.189H495.589L439.628 541.901H382.172V193.463C386.219 192.591 390.531 193.948 393.611 197.435L499.197 313.678C507.467 322.783 501.661 338.476 489.869 338.476H461.184L531.046 415.39C539.407 424.496 533.512 440.189 521.722 440.189Z" fill="#83BA24"/>
<path d="M514.231 646C462.718 646 421.461 608.837 421.461 568.72C421.461 542.275 441.643 521.463 442.505 520.589C461.914 500.028 460.765 474.937 442.461 456.361C438.69 452.464 438.078 446.788 440.969 442.314C443.868 437.821 449.614 435.525 455.162 436.615C497.224 444.865 527.483 478.902 527.483 517.624V536.63C527.483 538.843 529.467 540.641 531.9 540.641C534.333 540.641 536.317 538.843 536.317 536.63V501.667C536.317 496.677 539.708 492.203 544.842 490.424C549.993 488.658 555.791 489.927 559.449 493.648L585.955 520.587C586.818 521.461 606.999 542.273 606.999 568.719C607.002 608.87 565.713 646 514.231 646Z" fill="#FD8300"/>
<path d="M514.595 621.977C475.574 621.977 448.383 593.947 448.383 568.79C448.383 551.731 462.564 536.82 462.711 536.671C479.868 518.5 486.394 496.891 482.376 476.384C494.17 487.144 501.352 501.882 501.352 517.716V536.714C501.352 552.188 515.214 564.779 532.25 564.779C549.286 564.779 563.149 552.187 563.149 536.714V533.288L566.512 536.706C566.623 536.82 580.806 551.729 580.806 568.79C580.807 593.945 553.615 621.977 514.595 621.977Z" fill="#F7C100"/>
</svg>
