<svg width="808" height="808" viewBox="0 0 808 808" fill="none" xmlns="http://www.w3.org/2000/svg">
<rect x="16.5" y="16.5" width="775" height="775" rx="387.5" fill="white"/>
<rect x="16.5" y="16.5" width="775" height="775" rx="387.5" stroke="black" stroke-width="33"/>
<path d="M408.408 642.989H355.45C348.142 642.989 342.211 635.997 342.211 627.369V523.236C342.211 514.607 348.142 507.616 355.45 507.616H408.408C415.717 507.616 421.648 514.607 421.648 523.236V627.369C421.648 635.997 415.717 642.989 408.408 642.989Z" fill="#AC7551"/>
<path d="M408.409 507.616H381.93V642.989H408.409C415.717 642.989 421.648 635.997 421.648 627.369V523.236C421.648 514.606 415.717 507.616 408.409 507.616Z" fill="#845A3C"/>
<path d="M521.69 437.189H495.494L439.399 538.901H214.221C202.49 538.901 196.582 523.208 204.871 514.102L274.904 437.188H246.15C234.419 437.188 228.51 421.495 236.802 412.389L306.832 335.475H278.079C266.347 335.475 260.439 319.782 268.728 310.676L374.57 194.435C376.686 192.111 379.156 190.851 381.803 190.463C385.86 189.591 390.182 190.948 393.269 194.435L499.11 310.678C507.4 319.784 501.58 335.477 489.76 335.477H461.006L531.036 412.391C539.418 421.496 533.509 437.189 521.69 437.189Z" fill="#A2E62E"/>
<path d="M521.722 437.189H495.589L439.628 538.901H382.172V190.463C386.219 189.591 390.531 190.948 393.611 194.435L499.197 310.678C507.467 319.783 501.661 335.476 489.869 335.476H461.184L531.046 412.39C539.407 421.496 533.512 437.189 521.722 437.189Z" fill="#83BA24"/>
<path d="M514.231 643C462.718 643 421.461 605.837 421.461 565.72C421.461 539.275 441.643 518.463 442.505 517.589C461.914 497.028 460.765 471.937 442.461 453.361C438.69 449.464 438.078 443.788 440.969 439.314C443.868 434.821 449.614 432.525 455.162 433.615C497.224 441.865 527.483 475.902 527.483 514.624V533.63C527.483 535.843 529.467 537.641 531.9 537.641C534.333 537.641 536.317 535.843 536.317 533.63V498.667C536.317 493.677 539.708 489.203 544.842 487.424C549.993 485.658 555.791 486.927 559.449 490.648L585.955 517.587C586.818 518.461 606.999 539.273 606.999 565.719C607.002 605.87 565.713 643 514.231 643Z" fill="#FD8300"/>
<path d="M514.595 618.977C475.574 618.977 448.383 590.947 448.383 565.79C448.383 548.731 462.564 533.82 462.711 533.671C479.868 515.5 486.394 493.891 482.376 473.384C494.17 484.144 501.352 498.882 501.352 514.716V533.714C501.352 549.188 515.214 561.779 532.25 561.779C549.286 561.779 563.149 549.187 563.149 533.714V530.288L566.512 533.706C566.623 533.82 580.806 548.729 580.806 565.79C580.807 590.945 553.615 618.977 514.595 618.977Z" fill="#F7C100"/>
</svg>
