<svg width="808" height="808" viewBox="0 0 808 808" fill="none" xmlns="http://www.w3.org/2000/svg">
<rect x="16.5" y="16.5" width="775" height="775" rx="387.5" fill="white"/>
<rect x="16.5" y="16.5" width="775" height="775" rx="387.5" stroke="black" stroke-width="33"/>
<path fill-rule="evenodd" clip-rule="evenodd" d="M524.357 208.02C521.715 201.972 514.825 199.02 508.623 201.28L335.326 264.414L335.275 264.432L289.162 281.457C282.686 283.848 279.374 291.036 281.765 297.512C284.156 303.989 291.344 307.3 297.82 304.909L316.466 298.026L306.21 321.612C303.457 327.943 306.358 335.307 312.689 338.06C319.02 340.813 326.384 337.912 329.136 331.581L348.927 286.066L506.148 228.789L554.874 340.322L573.728 383.481L515.137 518.23L453.694 491.513L464.261 467.211L498.753 387.886C501.506 381.555 498.605 374.191 492.274 371.438L411.114 336.149C404.783 333.396 397.42 336.297 394.667 342.628L360.374 421.495L349.608 446.255L290.458 420.536L301.224 395.775L310.595 374.224C313.347 367.894 310.447 360.53 304.116 357.777C297.785 355.024 290.421 357.925 287.668 364.256L262.547 422.031C259.794 428.362 262.695 435.725 269.026 438.478L516.632 546.14C522.963 548.893 530.327 545.993 533.08 539.662L587.324 414.907L596.13 434.759L596.158 434.823C598.951 441.121 606.315 443.971 612.62 441.195C618.926 438.419 621.797 431.064 619.039 424.75L619.011 424.686L524.357 208.02ZM430.768 481.545L372.535 456.224L383.301 431.463L412.609 364.06L470.842 389.38L441.534 456.784L430.768 481.545Z" fill="black"/>
<path d="M290.458 420.536L349.608 446.255L360.374 421.495L301.224 395.775L290.458 420.536Z" fill="#D7D0D6"/>
<path d="M515.137 518.23L573.728 383.481L554.874 340.322L498.651 469.624C494.929 478.226 491.553 479.087 484.437 475.984L464.261 467.211L453.694 491.513L515.137 518.23Z" fill="#D7D0D6"/>
<path d="M329.136 331.581C326.384 337.912 319.02 340.813 312.689 338.06L304.116 357.777C310.447 360.53 313.347 367.894 310.595 374.224L301.224 395.775L360.374 421.495L394.667 342.628C397.42 336.297 404.783 333.396 411.114 336.149L492.274 371.438C498.605 374.191 501.506 381.555 498.753 387.886L464.261 467.211L484.437 475.984C491.553 479.087 494.929 478.226 498.651 469.624L554.874 340.322L506.148 228.789L348.927 286.066L329.136 331.581Z" fill="#E5E1E5"/>
<path d="M470.842 389.38L412.609 364.06L383.301 431.463L441.534 456.784L470.842 389.38Z" fill="#FE646F"/>
<path d="M372.535 456.224L430.768 481.545L441.534 456.784L383.301 431.463L372.535 456.224Z" fill="#FD4755"/>
<path d="M646.387 242.714C652.721 245.468 655.619 252.831 652.866 259.162L641.778 284.662L636.119 297.678C633.366 304.009 626.005 306.911 619.671 304.157C613.338 301.403 610.439 294.04 613.192 287.709L629.94 249.193C631.429 245.768 634.267 243.346 637.562 242.281C640.357 241.377 643.481 241.45 646.387 242.714Z" fill="black"/>
<path d="M605.516 336.713C611.34 339.245 618.115 336.577 620.647 330.752C623.18 324.927 620.512 318.153 614.687 315.62C608.862 313.087 602.088 315.756 599.555 321.581C597.022 327.405 599.691 334.18 605.516 336.713Z" fill="black"/>
<path fill-rule="evenodd" clip-rule="evenodd" d="M691.806 242.392C687.016 205.701 644.831 187.359 614.73 208.879L529.631 269.699C498.653 291.843 503.663 339.315 538.583 354.498L637.239 397.395C672.159 412.579 710.294 383.867 705.362 346.109L691.806 242.392ZM686.521 348.571L672.965 244.853C670.513 226.078 652.072 215.152 635.322 219.762C632.031 220.668 628.806 222.173 625.78 224.337L540.68 285.157C521.709 298.713 524.78 327.778 546.159 337.074L627.124 372.279L644.815 379.971C666.194 389.267 689.546 371.69 686.521 348.571Z" fill="black"/>
<path d="M686.521 348.571L672.965 244.853C670.513 226.078 652.072 215.152 635.322 219.762L637.562 242.281C640.357 241.377 643.481 241.45 646.387 242.714C652.721 245.468 655.619 252.831 652.866 259.162L641.778 284.662L648.376 350.987C650.77 362.099 646.597 366.957 627.124 372.279L644.815 379.971C666.194 389.267 689.546 371.69 686.521 348.571Z" fill="#FFC344"/>
<path fill-rule="evenodd" clip-rule="evenodd" d="M625.78 224.337L540.68 285.157C521.709 298.713 524.78 327.778 546.159 337.074L627.124 372.279C646.597 366.957 650.77 362.099 648.376 350.987L641.778 284.662L636.119 297.678C633.366 304.009 626.005 306.911 619.671 304.157C613.338 301.403 610.439 294.04 613.192 287.709L629.94 249.193C631.429 245.768 634.267 243.346 637.562 242.281L635.322 219.762C632.031 220.668 628.806 222.173 625.78 224.337ZM605.516 336.713C611.34 339.245 618.115 336.577 620.647 330.752C623.18 324.927 620.512 318.153 614.687 315.62C608.862 313.087 602.088 315.756 599.555 321.581C597.022 327.405 599.691 334.18 605.516 336.713Z" fill="#FFD15B"/>
<path d="M635.598 589.536C642.667 592.473 640.567 603 632.912 603H160C156.134 603 153 599.866 153 596V399.489C153 394.497 158.076 391.109 162.686 393.025L635.598 589.536Z" fill="#C29439"/>
<path d="M222.635 565H331.823M203 505H276.271M310.273 532H395.037M395.037 583H498" stroke="#E5AD59" stroke-width="13" stroke-linecap="round" stroke-linejoin="round"/>
<path d="M213.781 304.176L258.425 323.126M168.739 321.993L212.463 340.553M190.142 359.867L234.786 378.817" stroke="black" stroke-width="11" stroke-linecap="round" stroke-linejoin="round"/>
</svg>
