<svg width="808" height="808" viewBox="0 0 808 808" fill="none" xmlns="http://www.w3.org/2000/svg">
<rect x="16.5" y="16.5" width="775" height="775" rx="387.5" fill="white"/>
<rect x="16.5" y="16.5" width="775" height="775" rx="387.5" stroke="black" stroke-width="33"/>
<path d="M561.806 171.729H495.041L477.664 519.271H578.268L561.806 171.729Z" fill="#D7D0D6"/>
<path d="M486.81 336.354H450.227V281.479L340.477 336.354V281.479L230.727 336.354V519.271H486.81V336.354Z" fill="#E5E1E5"/>
<path d="M267.312 372.938H303.896V409.521H267.312V372.938ZM340.479 372.938H377.063V409.521H340.479V372.938ZM413.646 372.938H450.229V409.521H413.646V372.938ZM267.312 446.104H303.896V482.688H267.312V446.104ZM340.479 446.104H377.063V482.688H340.479V446.104ZM413.646 446.104H450.229V482.688H413.646V446.104Z" fill="#99DDFF"/>
<path d="M417.361 478.209C424.268 478.209 429.861 483.806 429.861 490.709V518.516V532.709C429.861 539.613 424.268 545.209 417.361 545.209C410.455 545.209 404.861 539.613 404.861 532.709V490.709C404.861 486.974 406.499 483.622 409.095 481.331C411.298 479.388 414.192 478.209 417.361 478.209Z" fill="black"/>
<path d="M417.361 580.709C423.713 580.709 428.861 575.561 428.861 569.209C428.861 562.858 423.713 557.709 417.361 557.709C411.01 557.709 405.861 562.858 405.861 569.209C405.861 575.561 411.01 580.709 417.361 580.709Z" fill="black"/>
<path fill-rule="evenodd" clip-rule="evenodd" d="M458.885 459.803C439.861 428.066 393.861 428.066 374.838 459.803L321.049 549.513C301.471 582.173 324.994 623.709 363.072 623.709H470.65C508.729 623.709 532.252 582.173 512.674 549.513L458.885 459.803ZM496.377 559.283L442.588 469.573C432.852 453.333 411.584 450.666 398.062 461.573C395.405 463.716 393.047 466.383 391.135 469.573L337.346 559.283C325.354 579.279 339.76 604.709 363.072 604.709H451.359H470.65C493.963 604.709 508.369 579.279 496.377 559.283Z" fill="black"/>
<path d="M496.377 559.283L442.588 469.573C432.852 453.333 411.584 450.666 398.062 461.573L409.095 481.331C411.298 479.388 414.192 478.209 417.361 478.209C424.268 478.209 429.861 483.806 429.861 490.709V518.516L462.359 576.709C468.985 585.945 467.095 592.064 451.359 604.709H470.65C493.963 604.709 508.369 579.279 496.377 559.283Z" fill="#FFB822"/>
<path fill-rule="evenodd" clip-rule="evenodd" d="M391.135 469.573L337.346 559.283C325.354 579.279 339.76 604.709 363.072 604.709H451.359C467.095 592.064 468.985 585.945 462.359 576.709L429.861 518.516V532.709C429.861 539.613 424.268 545.209 417.361 545.209C410.455 545.209 404.861 539.613 404.861 532.709V490.709C404.861 486.974 406.499 483.622 409.095 481.331L398.062 461.573C395.405 463.716 393.047 466.383 391.135 469.573ZM417.361 580.709C423.713 580.709 428.861 575.561 428.861 569.209C428.861 562.858 423.713 557.709 417.361 557.709C411.01 557.709 405.861 562.858 405.861 569.209C405.861 575.561 411.01 580.709 417.361 580.709Z" fill="#FFC42D"/>
</svg>
