<svg width="808" height="808" viewBox="0 0 808 808" fill="none" xmlns="http://www.w3.org/2000/svg">
<rect x="16.5" y="16.5" width="775" height="775" rx="387.5" fill="white"/>
<rect x="16.5" y="16.5" width="775" height="775" rx="387.5" stroke="black" stroke-width="33"/>
<g clip-path="url(#clip0_286_58)">
<path d="M447.665 542.019H361.342C353.08 542.019 346.051 547.445 343.83 554.967C343.091 556.693 342.844 558.542 342.844 560.516V671.502C342.844 681.738 351.106 689.999 361.341 689.999H447.663C457.899 689.999 466.161 681.736 466.161 671.502V560.516C466.163 550.281 457.9 542.019 447.665 542.019Z" fill="#845A3C"/>
<path d="M204.394 579.014C155.257 579.014 132.666 527.968 156.151 492.739L356.94 149.918C366.901 133.515 385.388 122.393 404.497 123.025C423.606 122.393 442.094 133.516 452.053 149.917L652.843 492.738C676.328 527.966 653.736 579.013 604.599 579.013H204.394V579.014Z" fill="#FFB822"/>
<path d="M604.601 579.014C653.739 579.014 676.329 527.966 652.845 492.739L452.056 149.918C442.097 133.516 423.607 122.392 404.5 123.027V579.014H604.601Z" fill="#FFB822"/>
<path d="M606.618 542.018H202.381C188.076 542.018 178.21 526.357 187.46 512.299L388.714 168.858C392.289 162.939 398.456 159.979 404.499 159.979C410.541 159.979 416.707 162.94 420.284 168.734L483.544 276.761L502.289 308.824L561.481 409.945L622.031 513.285C630.294 525.494 621.538 542.018 606.618 542.018Z" fill="white"/>
<path d="M410.386 331.264L423.483 325.164L417.413 312L404.317 318.1L410.386 331.264ZM404.636 342.502L382.915 335.117L375.568 356.95L397.289 364.334L404.636 342.502ZM404.796 351.652L444.406 347.96L447.76 385.846L419.17 389.217L407.511 373.806L404.796 351.652ZM453.669 415.224L467.405 423.572L475.39 422.127L484.973 406.395V406.074L471.078 397.565L463.092 399.01L453.669 414.742V415.224ZM459.579 434.809L485.133 438.181L481.779 464.508L463.731 461.94L456.863 448.776L459.579 434.809ZM433.864 437.057L364.707 352.936L349.694 315.853L338.378 313.197L335 494.528C335 499.666 339.153 503.679 344.104 503.679L468.682 503.518L458.461 466.916L433.864 437.057ZM423.642 407.839L429.712 403.184L421.247 391.786L415.337 396.281V407.839H423.642ZM515 504H492.48V487.786L501.584 478.475L515 488.749V504Z" fill="#777777"/>
</g>
<defs>
<clipPath id="clip0_286_58">
<rect width="567" height="567" fill="white" transform="translate(121 123)"/>
</clipPath>
</defs>
</svg>
