<svg width="808" height="808" viewBox="0 0 808 808" fill="none" xmlns="http://www.w3.org/2000/svg">
<rect x="16.5" y="16.5" width="775" height="775" rx="387.5" fill="white"/>
<rect x="16.5" y="16.5" width="775" height="775" rx="387.5" stroke="black" stroke-width="33"/>
<path d="M499.259 369.172H490.126H461.784H430.914V393.357H461.784H462.783H479.163H497.211H513.127H543.792V369.172H521.171" fill="#F28838"/>
<path d="M533.481 344.985H490.126H461.785H441.226C435.531 344.985 430.914 349.602 430.914 355.297V369.171H543.793V355.297C543.792 349.603 539.177 344.985 533.481 344.985Z" fill="#FFB92E"/>
<path d="M549.025 445.374L546.031 423.479C543.953 405.006 543.793 393.359 543.793 393.359H475.955H430.912C430.912 393.359 429.993 459.236 404.57 526.141C407.653 534.254 411.096 542.382 414.94 550.409H415.352H475.954H580.503C562.985 513.838 553.818 475.183 549.025 445.374Z" fill="#C1B79F"/>
<path d="M442.923 447.157L445.916 424.51C447.995 405.405 448.155 393.358 448.155 393.358H430.912C430.912 393.358 429.993 459.235 404.57 526.141C407.502 533.856 410.772 541.584 414.391 549.227C430.003 513.388 438.406 476.209 442.923 447.157Z" fill="#C9B585"/>
<path d="M579.43 550.409H580.504C580.316 550.019 580.135 549.627 579.95 549.237C579.78 549.627 579.602 550.018 579.43 550.409Z" fill="#C9B585"/>
<path d="M430.914 369.172V393.357H449.385V369.172H430.914Z" fill="#EF711D"/>
<path d="M459.698 344.985H441.226C435.531 344.985 430.914 349.602 430.914 355.297V369.171H449.386V355.297C449.386 349.603 454.002 344.985 459.698 344.985Z" fill="#EF9A1D"/>
<path d="M580.923 550.409H415.359C420.08 550.409 423.907 555.027 423.907 560.721V590.814H589.471V560.721C589.471 555.026 585.645 550.409 580.923 550.409Z" fill="#72706D"/>
<path d="M436.409 550.409H415.359C420.08 550.409 423.907 555.027 423.907 560.721V590.814H444.956V560.721C444.955 555.026 441.13 550.409 436.409 550.409Z" fill="#6B6861"/>
<path d="M335.416 369.172H326.284H297.941H267.07V393.357H297.941H298.94H315.32H333.369H349.284H379.95V369.172H357.328" fill="#F28838"/>
<path d="M369.639 344.985H326.284H297.943H277.382C271.687 344.985 267.07 349.602 267.07 355.297V369.171H379.949V355.297C379.95 349.603 375.334 344.985 369.639 344.985Z" fill="#FFB92E"/>
<path d="M379.952 393.357H312.114H267.071C267.071 393.357 265.918 476.18 230.359 550.409H312.112H416.662C381.105 476.18 379.952 393.357 379.952 393.357Z" fill="#CCC3A8"/>
<path d="M284.257 393.357H267.071C267.071 393.357 265.918 476.18 230.359 550.409H249.971C283.152 475.07 284.257 393.357 284.257 393.357Z" fill="#C9B585"/>
<path d="M425.623 590.813V560.72C425.623 555.026 421.797 550.409 417.076 550.409H229.948C225.227 550.409 221.398 555.026 221.398 560.72V590.813H425.623Z" fill="#7C7A75"/>
<path d="M267.07 369.172V393.357H285.543V369.172H267.07Z" fill="#EF711D"/>
<path d="M295.854 344.985H277.382C271.687 344.985 267.07 349.602 267.07 355.297V369.171H285.541V355.297C285.543 349.603 290.159 344.985 295.854 344.985Z" fill="#EF9A1D"/>
<path opacity="0.15" d="M323.889 355.991V370.798V396.613H323.891C323.891 396.613 324.918 475.075 354.773 550.409H416.659C381.101 476.179 379.948 393.356 379.948 393.356H379.946V369.172V355.298C379.946 349.603 375.33 344.986 369.634 344.986H326.279H313.578C319.273 344.985 323.889 349.913 323.889 355.991Z" fill="#F5F5F5"/>
<path opacity="0.15" d="M487.733 355.991V370.798V396.613H487.734C487.734 396.613 488.762 475.075 518.616 550.409H580.502C544.945 476.179 543.791 393.356 543.791 393.356H543.79V369.172V355.298C543.79 349.603 539.173 344.986 533.478 344.986H490.123H477.422C483.116 344.985 487.733 349.913 487.733 355.991Z" fill="#F5F5F5"/>
<path d="M248.419 550.409H229.948C225.227 550.409 221.398 555.027 221.398 560.721V590.814H239.87V560.721C239.87 555.026 243.698 550.409 248.419 550.409Z" fill="#6B6861"/>
<path d="M534.684 615H590.87C596.817 615 601.639 610.179 601.639 604.23V601.584C601.639 595.636 596.818 590.814 590.87 590.814H526.137H281.868H217.137C211.189 590.814 206.367 595.635 206.367 601.584V604.23C206.367 610.178 211.188 615 217.137 615H281.869H512.915" fill="#CCC3A8"/>
<path d="M222.433 604.152V601.505C222.433 595.557 227.254 590.735 233.202 590.735H217.137C211.189 590.735 206.367 595.556 206.367 601.505V604.152C206.367 610.099 211.188 614.921 217.137 614.921H233.203C227.255 614.921 222.433 610.099 222.433 604.152Z" fill="#C9B585"/>
<path d="M440 318.5V345H481V318.5H440Z" fill="#FFEDC6"/>
<path d="M534 201H440V292V318.5H481V345H534V201Z" fill="#FFD686"/>
<path d="M274 318.5V345H315V318.5H274Z" fill="#FFEDC6"/>
<path d="M368 201H274V292V318.5H315V345H368V201Z" fill="#FFD686"/>
<path d="M536 292C554.778 292 570 276.778 570 258V258C570 239.222 554.778 224 536 224H492.5C534.5 224 535.5 292 492.5 292H536Z" fill="#FFD686"/>
<path d="M272 224C253.222 224 238 239.222 238 258V258C238 276.778 253.222 292 272 292H492.5C535.5 292 534.5 224 492.5 224H272Z" fill="#FFEDC6"/>
<path d="M667 260C685.778 260 701 244.778 701 226V226C701 207.222 685.778 192 667 192H605.5C680.645 192 682.434 260 605.5 260H667Z" fill="#FFD686"/>
<path d="M141 192C122.222 192 107 207.222 107 226V226C107 244.778 122.222 260 141 260H605.5C682.434 260 680.645 192 605.5 192H141Z" fill="#FFEDC6"/>
</svg>
