<svg width="808" height="808" viewBox="0 0 808 808" fill="none" xmlns="http://www.w3.org/2000/svg">
<rect x="16.5" y="16.5" width="775" height="775" rx="387.5" fill="white"/>
<rect x="16.5" y="16.5" width="775" height="775" rx="387.5" stroke="black" stroke-width="33"/>
<g clip-path="url(#clip0_278_94)">
<path d="M403.996 338.278C384.256 338.278 368.273 354.274 368.273 374C368.273 393.757 384.255 409.723 403.996 409.723C423.737 409.723 439.719 393.744 439.719 374C439.719 354.273 423.721 338.277 403.996 338.278Z" fill="#010002"/>
<path d="M241.38 470.974C241.312 471.58 241.256 472.185 241.22 472.781C237.581 522.974 251.726 560.813 281.05 579.332C293.342 587.087 307.602 591.018 323.436 591.018C347.832 591.018 375.658 581.516 404.001 563.521L427.298 546.823C442.546 535.869 457.377 522.91 471.434 508.256L479.524 499.822L437.975 504.759C426.849 514.971 415.431 523.948 404 531.475L380.7 546.823C360.368 558.254 340.987 564.277 324.44 564.277C313.438 564.279 303.687 561.649 295.458 556.46C276.237 544.349 266.18 518.229 267.087 482.844L269.843 455.681C271.57 444.704 274.166 433.27 277.584 421.591L260.942 388.557C253.916 407.198 248.649 425.538 245.265 443.15L241.38 470.974Z" fill="#FFC42D"/>
<path d="M289.894 386.907C298.946 364.93 309.991 343.577 322.737 323.416C331.974 308.706 342.132 294.539 352.93 281.302L315.022 287.879C310.058 294.851 305.216 302.071 300.575 309.414C291.498 323.86 283.322 338.525 276.221 353.094L289.894 386.907Z" fill="#FFC42D"/>
<path d="M572.369 290.416V285.23C574.442 260.48 572.104 236.753 565.604 216.611C558.719 195.278 547.437 179.022 532.975 169.598C520.094 161.226 504.978 156.982 488.052 156.982C463.275 156.982 435.005 168.411 404 190.958L422.5 209C447.821 190.763 469.344 183.017 488.051 183.017C499.879 183.017 510.219 185.855 518.793 191.455C537.686 203.714 548.642 237.211 546.705 276.793L546.66 277.678L542.544 304.387L541.799 309.984C539.865 324.476 536.576 338.638 531.779 353.094L518.103 386.907C511.576 400.473 503.924 414.253 494.736 428.984C482.73 448.202 476.5 454.904 465.192 467.069L464.358 467.967C463.517 468.872 462.648 469.808 461.748 470.781L456.084 476.901L497.211 469.378C504.088 461.048 506.523 457.552 515.361 444.864L516.512 443.213C521.631 435.851 526.214 428.73 530.417 421.59L547.057 388.558C556.357 366.894 562.823 344.388 566.809 319.795L567.139 317.768L572.369 290.416Z" fill="#FFC42D"/>
<path d="M378.462 253.015C386.698 244.784 396.26 236.017 405 229L386.279 210.496C370.168 223.611 354.392 239.137 339.328 256.705L378.462 253.015Z" fill="#FFC42D"/>
<path d="M404 190.958C372.993 168.411 344.722 156.982 319.948 156.982C303.02 156.982 287.905 161.227 275.019 169.602C260.562 179.022 249.281 195.278 242.397 216.611C235.896 236.754 233.558 260.481 235.631 285.231L236.328 289.569L240.86 317.766L241.189 319.794C245.176 344.382 251.641 366.889 260.942 388.557L277.584 421.591C281.786 428.727 286.367 435.848 291.492 443.216L292.657 444.886C296.714 450.711 299.046 454.862 301.079 458.481C303.4 462.615 305.332 466.055 309 470.5L328.475 499.822L336.564 508.256C350.622 522.91 365.454 535.869 380.7 546.823L404 531.475C392.572 523.951 381.152 514.972 370.025 504.759L348.5 478C337.192 465.835 325.267 448.197 313.264 428.987C304.079 414.26 296.427 400.481 289.894 386.907L276.221 353.094C271.424 338.64 268.135 324.478 266.2 309.984L265.453 304.387L261.339 277.677L261.295 276.794C259.358 237.212 270.316 203.713 289.219 191.447C297.783 185.853 308.121 183.016 319.948 183.016C338.656 183.016 360.961 192.26 386.279 210.496L405 229C411.163 233.948 416.743 239.772 422.39 245.665L422.391 245.666L423.274 246.588C425.337 248.74 427.414 250.895 429.535 253.015L455.069 281.302C465.866 294.539 476.024 308.707 485.27 323.429C498.009 343.577 509.051 364.928 518.103 386.907L531.779 353.094C524.678 338.522 516.5 323.853 507.419 309.404C502.778 302.061 497.937 294.846 492.978 287.88L468.671 256.706C453.61 239.143 438.615 222.117 422.5 209L404 190.958Z" fill="#FD4755"/>
<path d="M404.001 563.521C432.343 581.514 460.169 591.017 484.565 591.018H484.569C500.4 591.018 514.658 587.087 526.953 579.331C556.276 560.812 570.421 522.982 566.786 472.842C566.749 472.219 566.688 471.588 566.622 470.974L540.91 482.844C541.819 518.227 531.762 544.349 512.542 556.461C504.314 561.648 494.563 564.277 483.559 564.277C467.013 564.277 447.632 558.254 427.298 546.823L404.001 563.521Z" fill="#FD4755"/>
<path d="M530.417 421.59C533.834 433.27 536.43 444.705 538.157 455.682L562.734 443.15C559.351 425.538 554.084 407.199 547.057 388.558L530.417 421.59Z" fill="#FD4755"/>
<path d="M635 379.106C635 345.233 612.785 313.819 572.369 290.416L567.139 317.768C594.168 335.433 608.978 357.077 608.978 379.106C608.978 402.413 592.592 425.057 562.734 443.15L538.157 455.682C525.388 461.178 511.663 465.767 497.211 469.378L456.084 476.901C441.287 478.703 425.99 479.617 410.554 479.617H397.446C396.167 479.617 394.866 479.619 393.546 479.62L393.489 479.62C378.898 479.634 362.062 479.651 348.5 478L370.025 504.759C379.529 505.386 388.539 505.694 397.447 505.694H410.553C419.462 505.694 428.473 505.386 437.975 504.759L479.524 499.822C501.407 495.99 521.996 490.297 540.91 482.844L566.622 470.974C610.734 447.22 635 414.646 635 379.106Z" fill="#0099E5"/>
<path d="M236.328 289.569C195.912 312.975 173 345.236 173 379.106C173 414.646 197.266 447.22 241.38 470.974L245.265 443.15C215.408 425.057 199.022 402.413 199.022 379.106C199.022 357.072 213.835 335.425 240.86 317.766L236.328 289.569Z" fill="#0099E5"/>
<path d="M429.535 253.015C414.939 252.299 393.058 252.299 378.462 253.015L339.328 256.705C310.558 260.865 284.363 267.912 261.339 277.677L265.453 304.387C280.234 297.659 296.855 292.123 315.022 287.879L352.93 281.302C382.893 277.817 425.106 277.817 455.069 281.302L429.535 253.015Z" fill="#0099E5"/>
<path d="M267.087 482.844C286.003 490.298 306.596 495.992 328.475 499.822L309 470.5C296.752 467.439 286.318 462.875 275.662 458.213C273.734 457.369 271.798 456.523 269.843 455.681L267.087 482.844Z" fill="#0099E5"/>
<path d="M492.978 287.88C511.141 292.123 527.763 297.66 542.544 304.387L546.66 277.678C523.622 267.91 497.429 260.864 468.671 256.706L492.978 287.88Z" fill="#0099E5"/>
</g>
<defs>
<clipPath id="clip0_278_94">
<rect width="462" height="462" fill="white" transform="translate(173 143)"/>
</clipPath>
</defs>
</svg>
