<svg width="808" height="808" viewBox="0 0 808 808" fill="none" xmlns="http://www.w3.org/2000/svg">
<rect x="16.5" y="16.5" width="775" height="775" rx="387.5" fill="white"/>
<rect x="16.5" y="16.5" width="775" height="775" rx="387.5" stroke="black" stroke-width="33"/>
<g clip-path="url(#clip0_278_94)">
<path d="M403.996 341.278C384.256 341.278 368.273 357.274 368.273 377C368.273 396.757 384.255 412.723 403.996 412.723C423.737 412.723 439.719 396.744 439.719 377C439.719 357.273 423.721 341.277 403.996 341.278Z" fill="#010002"/>
<path d="M241.38 473.974C241.312 474.58 241.256 475.185 241.22 475.781C237.581 525.974 251.726 563.813 281.05 582.332C293.342 590.087 307.602 594.018 323.436 594.018C347.832 594.018 375.658 584.516 404.001 566.521L427.298 549.823C442.546 538.869 457.377 525.91 471.434 511.256L479.524 502.822L437.975 507.759C426.849 517.971 415.431 526.948 404 534.475L380.7 549.823C360.368 561.254 340.987 567.277 324.44 567.277C313.438 567.279 303.687 564.649 295.458 559.46C276.237 547.349 266.18 521.229 267.087 485.844L269.843 458.681C271.57 447.704 274.166 436.27 277.584 424.591L260.942 391.557C253.916 410.198 248.649 428.538 245.265 446.15L241.38 473.974Z" fill="#FFC42D"/>
<path d="M289.894 389.907C298.946 367.93 309.991 346.577 322.737 326.416C331.974 311.706 342.132 297.539 352.93 284.302L315.022 290.879C310.058 297.851 305.216 305.07 300.575 312.414C291.498 326.86 283.322 341.525 276.221 356.094L289.894 389.907Z" fill="#FFC42D"/>
<path d="M572.369 293.416V288.23C574.442 263.48 572.104 239.753 565.604 219.611C558.719 198.278 547.437 182.022 532.975 172.598C520.094 164.226 504.978 159.982 488.052 159.982C463.275 159.982 435.005 171.411 404 193.958L422.5 212C447.821 193.763 469.344 186.017 488.051 186.017C499.879 186.017 510.219 188.855 518.793 194.455C537.686 206.714 548.642 240.212 546.705 279.793L546.66 280.678L542.544 307.387L541.799 312.984C539.865 327.476 536.576 341.638 531.779 356.094L518.103 389.907C511.576 403.473 503.924 417.253 494.736 431.984C482.73 451.202 476.5 457.904 465.192 470.069L464.358 470.967C463.517 471.872 462.648 472.808 461.748 473.781L456.084 479.901L497.211 472.378C504.088 464.048 506.523 460.552 515.361 447.864L516.512 446.213C521.631 438.851 526.214 431.73 530.417 424.59L547.057 391.558C556.357 369.894 562.823 347.388 566.809 322.795L567.139 320.768L572.369 293.416Z" fill="#FFC42D"/>
<path d="M378.462 256.015C386.698 247.784 396.26 239.017 405 232L386.279 213.496C370.168 226.611 354.392 242.137 339.328 259.705L378.462 256.015Z" fill="#FFC42D"/>
<path d="M404 193.958C372.993 171.411 344.722 159.982 319.948 159.982C303.02 159.982 287.905 164.227 275.019 172.602C260.562 182.022 249.281 198.278 242.397 219.611C235.896 239.754 233.558 263.481 235.631 288.231L236.328 292.569L240.86 320.766L241.189 322.794C245.176 347.382 251.641 369.889 260.942 391.557L277.584 424.591C281.786 431.727 286.367 438.848 291.492 446.216L292.657 447.886C296.714 453.711 299.046 457.862 301.079 461.481C303.4 465.615 305.332 469.055 309 473.5L328.475 502.822L336.564 511.256C350.622 525.91 365.454 538.869 380.7 549.823L404 534.475C392.572 526.951 381.152 517.972 370.025 507.759L348.5 481C337.192 468.835 325.267 451.197 313.264 431.987C304.079 417.26 296.427 403.481 289.894 389.907L276.221 356.094C271.424 341.64 268.135 327.478 266.2 312.984L265.453 307.387L261.339 280.677L261.295 279.794C259.358 240.212 270.316 206.713 289.219 194.447C297.783 188.853 308.121 186.016 319.948 186.016C338.656 186.016 360.961 195.26 386.279 213.496L405 232C411.163 236.948 416.743 242.772 422.39 248.665L422.391 248.666L423.274 249.588C425.337 251.74 427.414 253.895 429.535 256.015L455.069 284.302C465.866 297.539 476.024 311.707 485.27 326.429C498.009 346.577 509.051 367.928 518.103 389.907L531.779 356.094C524.678 341.522 516.5 326.853 507.419 312.404C502.778 305.061 497.937 297.846 492.978 290.88L468.671 259.706C453.61 242.143 438.615 225.117 422.5 212L404 193.958Z" fill="#FD4755"/>
<path d="M404.001 566.521C432.343 584.514 460.169 594.017 484.565 594.018H484.569C500.4 594.018 514.658 590.087 526.953 582.331C556.276 563.812 570.421 525.982 566.786 475.842C566.749 475.219 566.688 474.588 566.622 473.974L540.91 485.844C541.819 521.227 531.762 547.349 512.542 559.461C504.314 564.648 494.563 567.277 483.559 567.277C467.013 567.277 447.632 561.254 427.298 549.823L404.001 566.521Z" fill="#FD4755"/>
<path d="M530.417 424.59C533.834 436.27 536.43 447.705 538.157 458.682L562.734 446.15C559.351 428.538 554.084 410.199 547.057 391.558L530.417 424.59Z" fill="#FD4755"/>
<path d="M635 382.106C635 348.233 612.785 316.819 572.369 293.416L567.139 320.768C594.168 338.433 608.978 360.077 608.978 382.106C608.978 405.413 592.592 428.057 562.734 446.15L538.157 458.682C525.388 464.178 511.663 468.767 497.211 472.378L456.084 479.901C441.287 481.703 425.99 482.617 410.554 482.617H397.446C396.167 482.617 394.866 482.619 393.546 482.62L393.489 482.62C378.898 482.634 362.062 482.651 348.5 481L370.025 507.759C379.529 508.386 388.539 508.694 397.447 508.694H410.553C419.462 508.694 428.473 508.386 437.975 507.759L479.524 502.822C501.407 498.99 521.996 493.297 540.91 485.844L566.622 473.974C610.734 450.22 635 417.646 635 382.106Z" fill="#0099E5"/>
<path d="M236.328 292.569C195.912 315.975 173 348.236 173 382.106C173 417.646 197.266 450.22 241.38 473.974L245.265 446.15C215.408 428.057 199.022 405.413 199.022 382.106C199.022 360.072 213.835 338.425 240.86 320.766L236.328 292.569Z" fill="#0099E5"/>
<path d="M429.535 256.015C414.939 255.299 393.058 255.299 378.462 256.015L339.328 259.705C310.558 263.865 284.363 270.912 261.339 280.677L265.453 307.387C280.234 300.659 296.855 295.123 315.022 290.879L352.93 284.302C382.893 280.817 425.106 280.817 455.069 284.302L429.535 256.015Z" fill="#0099E5"/>
<path d="M267.087 485.844C286.003 493.298 306.596 498.992 328.475 502.822L309 473.5C296.752 470.439 286.318 465.875 275.662 461.213C273.734 460.369 271.798 459.523 269.843 458.681L267.087 485.844Z" fill="#0099E5"/>
<path d="M492.978 290.88C511.141 295.123 527.763 300.66 542.544 307.387L546.66 280.678C523.622 270.91 497.429 263.864 468.671 259.706L492.978 290.88Z" fill="#0099E5"/>
</g>
<defs>
<clipPath id="clip0_278_94">
<rect width="462" height="462" fill="white" transform="translate(173 146)"/>
</clipPath>
</defs>
</svg>
