<svg width="808" height="808" viewBox="0 0 808 808" fill="none" xmlns="http://www.w3.org/2000/svg">
<rect x="16.5" y="16.5" width="775" height="775" rx="387.5" fill="white"/>
<rect x="16.5" y="16.5" width="775" height="775" rx="387.5" stroke="black" stroke-width="33"/>
<path d="M163 558H645L480.682 339.136H443.755V397.905C443.89 428.881 412.829 428.906 412.519 398.311V339.136H380.472V374.398C380.472 386.557 361.811 386.557 361.811 374.398V339.136H327.318L163 558Z" fill="#777777"/>
<path d="M404 237L341.924 319.682L327.318 339.136H361.811V374.398C361.811 386.557 380.472 386.557 380.472 374.398V339.136H412.519V398.311C412.829 428.906 443.89 428.881 443.755 397.905V339.136H480.682L466.076 319.682L404 237Z" fill="#FD8300"/>
<path d="M186 534C161.147 534 141 554.147 141 579V627C141 651.853 161.147 672 186 672H610.628V534H186Z" fill="#A2E62E"/>
<path d="M623 672C647.853 672 668 651.853 668 627V579C668 554.147 647.853 534 623 534H610.628V672H623Z" fill="#83BA24"/>
<path d="M357 270.5V297H398V270.5H357Z" fill="#FFEDC6"/>
<path d="M451 153H357V244V270.5H398V297H451V153Z" fill="#FFD686"/>
<path d="M536 244C554.778 244 570 228.778 570 210V210C570 191.222 554.778 176 536 176H492.5C534.5 176 535.5 244 492.5 244H536Z" fill="#FFD686"/>
<path d="M272 176C253.222 176 238 191.222 238 210V210C238 228.778 253.222 244 272 244H492.5C535.5 244 534.5 176 492.5 176H272Z" fill="#FFEDC6"/>
<path d="M615 210C633.778 210 649 194.778 649 176V176C649 157.222 633.778 142 615 142H570.381C632.243 142 633.716 210 570.381 210H615Z" fill="#FFD686"/>
<path d="M194 142C175.222 142 160 157.222 160 176V176C160 194.778 175.222 210 194 210H570.381C633.716 210 632.243 142 570.381 142H194Z" fill="#FFEDC6"/>
</svg>
