<svg width="808" height="808" viewBox="0 0 808 808" fill="none" xmlns="http://www.w3.org/2000/svg">
<rect x="16.5" y="16.5" width="775" height="775" rx="387.5" fill="white"/>
<rect x="16.5" y="16.5" width="775" height="775" rx="387.5" stroke="black" stroke-width="33"/>
<path d="M475.194 130.328L344.253 313.392L322.385 193.751L293.018 327.836L261.172 288.226V378.213V402.057V403.524C261.172 407.663 261.219 411.51 261.303 415.187C261.92 439.99 265.366 455.315 280.861 475.428C284.437 480.07 288.6 484.944 293.575 490.281C294.703 491.486 295.954 492.606 297.321 493.664C305.254 499.798 317.35 503.281 334.289 504.432C338.476 504.717 342.862 504.91 347.667 504.91C352.525 504.91 357.561 504.755 362.713 504.485C367.154 504.254 371.666 503.929 376.23 503.528C426.484 499.117 481.643 485.616 484.408 484.936L537.775 471.766L433.305 453.459L585.496 399.343H433.514L674 144.56L414.041 323.364L475.194 130.328ZM409.329 391.205L400.825 400.219L391.935 409.643L379.785 422.519H394.7H406.317H417.904H451.172L417.996 434.314L406.032 438.57L393.549 443.011L349.536 458.66L342.676 461.102L352.161 462.762L381.876 467.968L394.537 470.185L406.742 472.325L419.239 474.519C414.28 475.346 409.136 476.125 403.975 476.882C398.623 477.662 393.255 478.349 387.84 478.983C381.367 479.747 374.963 480.373 368.661 480.836C365.764 481.052 362.976 481.191 360.164 481.33C355.931 481.53 351.674 481.755 347.697 481.755C319.518 481.755 312.135 476.185 310.543 474.486C306.897 470.578 303.816 467.056 301.112 463.742C285.185 444.176 284.374 432.621 284.374 403.546V386.398V370.497V356.307V354.036L285.587 355.55L292.886 364.618L300.217 373.732L305.323 380.081L307.478 370.233L310.382 356.979L313.156 344.327L320.363 311.406L326.071 342.635L328.171 354.113L330.271 365.59L331.322 371.345L335.331 365.737L343.048 354.946L350.479 344.55L408.936 262.819L379.174 356.777L375.513 368.34L371.805 380.057L371.573 380.691L372.09 380.336L381.908 373.584L391.671 366.871L507.481 287.219L409.329 391.205Z" fill="#010002"/>
<path d="M409.329 391.205L400.825 400.219L391.935 409.643L379.785 422.519H394.7H406.317H417.904H451.172L417.996 434.314L406.032 438.57L393.549 443.011L349.536 458.66L342.676 461.102L352.161 462.762L381.876 467.968L394.537 470.185L406.742 472.325L419.239 474.519C414.28 475.346 409.136 476.125 403.975 476.882C398.623 477.662 393.255 478.349 387.84 478.983C381.367 479.747 374.963 480.373 368.661 480.836C365.764 481.052 362.976 481.191 360.164 481.33C355.931 481.53 351.674 481.755 347.697 481.755C319.518 481.755 312.135 476.185 310.543 474.486C306.897 470.578 303.816 467.056 301.112 463.742C285.185 444.176 284.374 432.621 284.374 403.546V386.398V370.497V356.307V354.036L285.587 355.55L292.886 364.618L300.217 373.732L305.323 380.081L307.478 370.233L310.382 356.979L313.156 344.327L320.363 311.406L326.071 342.635L328.171 354.113L330.271 365.59L331.322 371.345L335.331 365.737L343.048 354.946L350.479 344.55L408.936 262.819L379.174 356.777L375.513 368.34L371.805 380.057L371.573 380.691L372.09 380.336L381.908 373.584L391.671 366.871L507.481 287.219L409.329 391.205Z" fill="#FD4755"/>
<path d="M343.877 361L302.961 418.18L296.128 380.81L286.951 422.691L277 410.319V438.426V445.874V446.332C277 447.625 277.015 448.827 277.041 449.975C277.234 457.722 278.31 462.509 283.152 468.791C284.27 470.241 285.571 471.764 287.125 473.431C287.478 473.807 287.869 474.157 288.296 474.487C290.775 476.403 294.554 477.491 299.848 477.851C301.156 477.94 302.527 478 304.028 478C305.546 478 307.12 477.952 308.729 477.867C310.117 477.795 311.527 477.694 312.953 477.568C328.657 476.191 345.892 471.974 346.756 471.761L363.433 467.647L330.788 461.929L378.344 445.026H330.853L406 365.446L324.768 421.294L343.877 361ZM323.296 442.485L320.639 445.3L317.861 448.244L314.064 452.265H318.725H322.355H325.975H336.371L326.004 455.949L322.266 457.279L318.365 458.666L304.612 463.554L302.468 464.317L305.432 464.835L314.718 466.461L318.674 467.154L322.487 467.822L326.393 468.507C324.843 468.766 323.236 469.009 321.623 469.246C319.95 469.489 318.273 469.704 316.581 469.902C314.558 470.14 312.557 470.336 310.588 470.48C309.683 470.548 308.812 470.591 307.933 470.635C306.61 470.697 305.28 470.767 304.037 470.767C295.232 470.767 292.925 469.028 292.427 468.497C291.288 467.277 290.325 466.176 289.48 465.141C284.504 459.03 284.25 455.421 284.25 446.339V440.983V436.016V431.584V430.875L284.629 431.348L286.91 434.18L289.201 437.027L290.796 439.01L291.47 435.934L292.377 431.794L293.244 427.842L295.496 417.56L297.28 427.314L297.936 430.899L298.592 434.484L298.921 436.281L300.173 434.53L302.585 431.159L304.906 427.912L323.173 402.383L313.873 431.731L312.729 435.343L311.57 439.003L311.498 439.2L311.66 439.089L314.727 436.981L317.778 434.884L353.966 410.005L323.296 442.485Z" fill="#FD8300"/>
<path d="M323.296 442.485L320.639 445.3L317.861 448.244L314.064 452.265H318.725H322.355H325.975H336.371L326.004 455.949L322.266 457.279L318.365 458.666L304.612 463.554L302.468 464.317L305.432 464.835L314.718 466.461L318.674 467.154L322.487 467.822L326.393 468.507C324.843 468.766 323.236 469.009 321.623 469.246C319.95 469.489 318.273 469.704 316.581 469.902C314.558 470.14 312.557 470.336 310.588 470.48C309.683 470.548 308.812 470.591 307.933 470.635C306.61 470.697 305.28 470.767 304.037 470.767C295.232 470.767 292.925 469.028 292.427 468.497C291.288 467.277 290.325 466.176 289.48 465.141C284.504 459.03 284.25 455.421 284.25 446.339V440.983V436.016V431.584V430.875L284.629 431.348L286.91 434.18L289.201 437.027L290.796 439.01L291.47 435.934L292.377 431.794L293.244 427.842L295.496 417.56L297.28 427.314L297.936 430.899L298.592 434.484L298.921 436.281L300.173 434.53L302.585 431.159L304.906 427.912L323.173 402.383L313.873 431.731L312.729 435.343L311.57 439.003L311.498 439.2L311.66 439.089L314.727 436.981L317.778 434.884L353.966 410.005L323.296 442.485Z" fill="#FFC42D"/>
<path d="M556.94 530.928L390.977 522.926L553.224 545.28C577.949 539.757 556.94 530.928 556.94 530.928Z" fill="#010002"/>
<path d="M271.054 202.82L284.285 292.753C284.285 292.753 280.925 190.584 282.354 179.068C283.784 167.559 265.369 164.13 271.054 202.82Z" fill="#010002"/>
<path d="M536.235 169.033L451.492 269.617C451.492 269.617 559.276 168.693 573.211 159.394C587.137 150.086 572.685 125.755 536.235 169.033Z" fill="#010002"/>
<g clip-path="url(#clip0_279_219)">
<path d="M238.063 432.265C215.795 418.64 186.305 420.499 165.859 438.766L165.196 439.359C144.75 457.626 139.593 486.721 150.634 510.378L238.063 432.265Z" fill="#777777"/>
<path d="M312.795 512.119C312.333 511.564 311.864 511.012 311.379 510.469C266.102 501.488 251.349 488.15 251.63 443.594C251.145 443.051 250.649 442.522 250.148 442.001L158.95 523.481C159.412 524.036 159.882 524.589 160.367 525.132L220.115 592.006C220.6 592.549 221.095 593.078 221.596 593.599L312.795 512.119Z" fill="#777777"/>
<path d="M294.141 686.605L326.517 630.464L300.378 601.208C302.274 599.871 304.115 598.416 305.886 596.834L306.55 596.241C308.321 594.659 309.973 592.993 311.514 591.258L337.653 620.515L397.072 594.644L353.026 545.344L326.5 556.894C327.55 546.182 325.778 535.217 321.112 525.221L233.682 603.335C243.091 609.093 253.788 612.085 264.549 612.242L250.096 637.305L294.141 686.605Z" fill="#777777"/>
<path d="M222.652 504.095C224.327 502.645 226.855 502.823 228.299 504.491L234.116 511.211L237.086 514.642C238.53 516.31 238.344 518.837 236.669 520.287C234.993 521.737 232.466 521.559 231.021 519.891L222.235 509.741C221.454 508.838 221.149 507.684 221.3 506.585C221.428 505.653 221.883 504.761 222.652 504.095Z" fill="black"/>
<path d="M244.095 528.867C245.636 527.533 245.808 525.208 244.479 523.673C243.15 522.138 240.824 521.974 239.284 523.308C237.743 524.642 237.571 526.967 238.9 528.502C240.229 530.037 242.555 530.2 244.095 528.867Z" fill="black"/>
<path fill-rule="evenodd" clip-rule="evenodd" d="M228.874 490.928C217.62 487.252 206.462 496.911 208.487 508.576L214.207 541.55C216.29 553.554 230.686 558.653 239.922 550.658L266.017 528.069C275.253 520.074 272.27 505.096 260.688 501.314L228.874 490.928ZM258.779 507.097L226.964 496.711C221.205 494.83 215.489 498.652 214.49 504.127C214.294 505.203 214.28 506.342 214.484 507.515L220.204 540.489C221.478 547.84 230.293 550.961 235.947 546.066L257.363 527.528L262.042 523.478C267.697 518.583 265.871 509.412 258.779 507.097Z" fill="black"/>
<path d="M258.779 507.097L226.964 496.711C221.205 494.83 215.489 498.652 214.49 504.127L221.3 506.585C221.428 505.653 221.883 504.761 222.652 504.095C224.327 502.645 226.855 502.823 228.299 504.491L234.116 511.211L254.173 518.452C257.712 519.292 258.534 521.168 257.363 527.528L262.042 523.478C267.697 518.583 265.871 509.412 258.779 507.097Z" fill="#FFB822"/>
<path fill-rule="evenodd" clip-rule="evenodd" d="M214.484 507.515L220.204 540.489C221.478 547.84 230.293 550.961 235.947 546.066L257.363 527.528C258.534 521.168 257.712 519.292 254.173 518.452L234.116 511.211L237.086 514.642C238.53 516.31 238.344 518.837 236.669 520.287C234.993 521.737 232.466 521.559 231.021 519.891L222.235 509.741C221.454 508.838 221.149 507.684 221.3 506.585L214.49 504.127C214.294 505.203 214.28 506.342 214.484 507.515ZM244.095 528.867C245.636 527.533 245.808 525.208 244.479 523.673C243.15 522.138 240.824 521.974 239.284 523.308C237.743 524.642 237.571 526.967 238.9 528.502C240.229 530.037 242.555 530.2 244.095 528.867Z" fill="#FFC42D"/>
</g>
<defs>
<clipPath id="clip0_279_219">
<rect width="258" height="258" fill="white" transform="translate(406.086 434.497) rotate(93.2211)"/>
</clipPath>
</defs>
</svg>
