<svg width="808" height="808" viewBox="0 0 808 808" fill="none" xmlns="http://www.w3.org/2000/svg">
<rect x="16.5" y="16.5" width="775" height="775" rx="387.5" fill="white"/>
<rect x="16.5" y="16.5" width="775" height="775" rx="387.5" stroke="black" stroke-width="33"/>
<g clip-path="url(#clip0_277_81)">
<path d="M473.497 164C452.886 164.029 432.709 169.927 415.329 181.005C397.947 192.084 384.081 207.885 375.354 226.558C347.314 223.892 319.337 232.234 297.336 249.82C275.335 267.407 261.036 292.86 257.461 320.798C242.77 324.415 229.909 333.278 221.299 345.718C212.69 358.159 208.926 373.318 210.717 388.341C212.509 403.363 219.731 417.213 231.024 427.28C242.317 437.348 256.902 442.939 272.031 443H280.37H550.969H566.469C585.756 442.934 604.325 435.678 618.548 422.651C632.771 409.623 641.625 391.761 643.38 372.553C645.135 353.346 639.666 334.175 628.04 318.785C616.414 303.396 599.467 292.894 580.512 289.333C581.442 283.753 581.907 278.142 581.969 272.5C581.969 243.724 570.537 216.127 550.19 195.779C529.849 175.438 502.263 164.007 473.497 164Z" fill="url(#paint0_linear_277_81)"/>
<path d="M470.369 347.458C428.55 347.52 393.055 373.25 376.098 410.078L374.858 412.558L372.223 412.806C333.566 415.596 303 449.014 303 489.686C303 532.156 336.232 567 377.4 567H557.2C588.045 567 613 540.867 613 509.123C613.036 497.818 609.73 486.755 603.497 477.323C597.265 467.892 588.384 460.513 577.97 456.113L575.304 454.997L574.994 452.145C572.39 394.175 526.882 347.52 470.369 347.458Z" fill="url(#paint1_linear_277_81)"/>
<path d="M458.361 485.209C465.268 485.209 470.861 490.806 470.861 497.709V525.516V539.709C470.861 546.613 465.268 552.209 458.361 552.209C451.455 552.209 445.861 546.613 445.861 539.709V497.709C445.861 493.974 447.499 490.622 450.095 488.331C452.298 486.388 455.192 485.209 458.361 485.209Z" fill="black"/>
<path d="M458.361 587.709C464.713 587.709 469.861 582.561 469.861 576.209C469.861 569.858 464.713 564.709 458.361 564.709C452.01 564.709 446.861 569.858 446.861 576.209C446.861 582.561 452.01 587.709 458.361 587.709Z" fill="black"/>
<path fill-rule="evenodd" clip-rule="evenodd" d="M499.885 466.803C480.861 435.066 434.861 435.066 415.838 466.803L362.049 556.513C342.471 589.173 365.994 630.709 404.072 630.709H511.65C549.729 630.709 573.252 589.173 553.674 556.513L499.885 466.803ZM537.377 566.283L483.588 476.573C473.852 460.333 452.584 457.666 439.062 468.573C436.405 470.716 434.047 473.383 432.135 476.573L378.346 566.283C366.354 586.279 380.76 611.709 404.072 611.709H492.359H511.65C534.963 611.709 549.369 586.279 537.377 566.283Z" fill="black"/>
<path d="M537.377 566.283L483.588 476.573C473.852 460.333 452.584 457.666 439.062 468.573L450.095 488.331C452.298 486.388 455.192 485.209 458.361 485.209C465.268 485.209 470.861 490.806 470.861 497.709V525.516L503.359 583.709C509.985 592.945 508.095 599.064 492.359 611.709H511.65C534.963 611.709 549.369 586.279 537.377 566.283Z" fill="#FFB822"/>
<path fill-rule="evenodd" clip-rule="evenodd" d="M432.135 476.573L378.346 566.283C366.354 586.279 380.76 611.709 404.072 611.709H492.359C508.095 599.064 509.985 592.945 503.359 583.709L470.861 525.516V539.709C470.861 546.613 465.268 552.209 458.361 552.209C451.455 552.209 445.861 546.613 445.861 539.709V497.709C445.861 493.974 447.499 490.622 450.095 488.331L439.062 468.573C436.405 470.716 434.047 473.383 432.135 476.573ZM458.361 587.709C464.713 587.709 469.861 582.561 469.861 576.209C469.861 569.858 464.713 564.709 458.361 564.709C452.01 564.709 446.861 569.858 446.861 576.209C446.861 582.561 452.01 587.709 458.361 587.709Z" fill="#FFC42D"/>
</g>
<defs>
<linearGradient id="paint0_linear_277_81" x1="426.992" y1="164" x2="426.992" y2="443" gradientUnits="userSpaceOnUse">
<stop stop-color="#D6D6D6"/>
<stop offset="1" stop-color="#73B1C1"/>
</linearGradient>
<linearGradient id="paint1_linear_277_81" x1="458" y1="347.458" x2="458" y2="567" gradientUnits="userSpaceOnUse">
<stop stop-color="#D6D6D6"/>
<stop offset="1" stop-color="#73B1C1"/>
</linearGradient>
<clipPath id="clip0_277_81">
<rect width="496" height="496" fill="white" transform="translate(179 133)"/>
</clipPath>
</defs>
</svg>
